<svg width="100" height="416" viewBox="0 0 100 416" fill="none" xmlns="http://www.w3.org/2000/svg">
<path d="M32 372C30.3438 369.797 27.2031 369.344 25 371C22.7969 372.656 22.3438 375.797 24 378L29.9531 385.938C30.7031 386.938 30.5938 388.328 29.7188 389.203L27.7188 391.203C26.6719 392.25 24.9688 392.172 24.0312 391.031L10 374.188V351C10 348.234 7.76562 346 5 346C2.23438 346 0 348.234 0 351V385.125C0 386.828 0.578125 388.484 1.64062 389.812L17.9062 410.797C18.6875 411.812 19.2188 412.969 19.5312 414.188C19.8125 415.266 20.7969 416 21.9219 416H42.5C43.875 416 45 414.875 45 413.5V396C45 391.672 43.5938 387.469 41 384L32 372ZM95 346C92.2344 346 90 348.234 90 351V374.188L75.9688 391.031C75.0312 392.156 73.3125 392.234 72.2812 391.203L70.2812 389.203C69.4062 388.328 69.2969 386.938 70.0469 385.938L76 378C77.6562 375.797 77.2031 372.656 75 371C72.7969 369.344 69.6562 369.797 68 372L59 384C56.4062 387.469 55 391.672 55 396V413.5C55 414.875 56.125 416 57.5 416H78.0781C79.1875 416 80.1875 415.266 80.4688 414.188C80.7812 412.969 81.3125 411.812 82.0938 410.797L98.3594 389.812C99.4219 388.484 100 386.828 100 385.125V351C100 348.234 97.7656 346 95 346Z" fill="#0E0E18"/>
<rect x="26" y="2" width="48" height="332" rx="22" stroke="#0E0E18" stroke-width="4"/>
</svg>
