<?xml version="1.0" encoding="UTF-8"?>
<svg id="a" data-name="Layer 1" xmlns="http://www.w3.org/2000/svg" viewBox="0 0 1920 1080">
  <path d="M1002.5,952.4c-4.2,2.4-2.3,10-11.7,14.7l-10,4.9c-1.8.9-4,.7-5.8-.5s-2.3-3-2.3-5.2c0-7.9-8-3.7-11.7-17.1-9.4,2.2-22.1-.5-28.4,1.1-17.4,4.4-31.1,1.1-49.2,4.7s-5.1,2.4-8,1.3-3.6-3-3.8-4.7c-.9-8.1,3.7-5.4,13.6-15.8s5.9-4.9,7.1-8.4c-.5-1.5-2.4-3-2.2-4.6.4-4.6,3.5-5.4,6.5-9.9-2.9-3.7-3.1-7.6-.6-12.5-4.1-.4-7-2.4-10.5-3.8l-8.4-3.3c-3-1.1-5-4-5.4-6.7-1.1-7.8,6.8-9.7,12.8-15.7s5-3.5,8.2-3.4,6.5-1.9,5.9-5.1-13.4-2.6-10.3-12.7,4.9-11,9.3-15.3c6.4-6.2,8.7-4.2,7.9-15.4l-11-25.3-32,1.7c-3.8.2-3.9-2.1-6.5-3.4l-93.5-49.4c-2.3-1.2-4.1-6.4-2.9-8.3,4-5.9,9.2-9.9,13.6-15.6l-68.4-23.6c-2-.7-3.1-2.3-3.1-4.1s1.1-3.3,2.8-4.7l132.4-106.4c-9.2-8.7-8.3-23-5.3-33.8-11.5-4-23.1-16.6-24.3-28.7-36.7,2.6-74.2-19.9-93.9-50.1-1.9-2.9-2.7-6.2.1-8.4,22.7-17.7,43.7-36.9,62.5-58.9s10.1-10.3,11.8-16.5c1-5.5-1.2-11.7-.5-17.8,2.7-23.8,13.1-49.1,32.1-64.2.8-19.7,10.4-46.8,23.7-61.3,1.2-1.3,2.7-2,4.2-1.9s3.1,1.4,4.1,3.1l21.1,35.3c4.6-.8,8.5-2.8,13.5-4.3l-7.6-185.1c-.2-3.7,1.7-5.1,5-6.4,21.7-5.7,51.7,19.1,61.2,38,11.5-20.6,36.9-38.9,60.2-38.7,4.9-.3,5.3,7.5,5.3,11.4l.5,180.8,16.6,10.1c2.4-6.8,11.9-36.6,18.1-38.4s4.1.2,5.8,1.5c14.6,11.7,30.1,43.1,30.3,62.8,24.8,8.6,38.1,61.4,32.1,84.7l62.9,58.9c2.4,2.2,5.8,5.8,4.8,9.3-2.2,7.6-6.9,14.1-12.2,20.1-15.1,17-34.4,29.5-55.7,37.2-8.6,3.1-16.9,4.6-26.3,4.4-2,10.2-9.6,17.7-20,20.7,6.8,13.3,6.2,29.6-5.8,39.3,22.1,16.7,37.3,39.6,47.7,64.4s5,10.3,8,15.2,9.8,12,15.9,17.1c20.5,17.2,44,30,69.3,38.4s2.9,3.3,2.5,5.2c-1.5,5.6-9.7,1.1-13.6,0-3.1,7.8-18.2,13.3-25.8,16.5-15,6.2-7-3.6-35.9,14.5-22.7,14.1-43.5,30.3-62.9,48.4-4.9,4.5-8.1,9.6-12.9,14l-5.2,4.8c-6.3,5.8.7,11.5,3.4,20.8,1.5,5.1-1.7,9.4-4.6,13.1s-2,4.3-3.2,6.4-1.2,5.3-1.4,7.7c-.6,10.5-7.8,3.4-6.7,18.7,6.3.8,7.7,5.2,9.7,9.9s3.6,8.8.7,14.3c-1.2,2.3-3.8,6.7-2.8,9.6,1.5,4.6,7.5,6.5,12,7.2s7-.6,10.3-.9c4.8-.5,7.2,2.2,8.1,6.5s1.2,7.5-1.3,11.1-5.7,8.1-9.3,11.5-7,3.6-11.1,4.3c-17.5,3-19.8-3.4-29.5-3.2s-7-2.4-9.8-5.4-7.5-2.4-10.5-.7ZM985.3,202c-6.9-15.5-20.7-33.9-38.8-34.4-19.5.1-31.5,20.7-36.5,37,3.5,5.7,7.6,10.4,13,14.2,22.1,15.6,48.8,4.1,62.3-16.8ZM1071.1,428.3c0-28.7-23.3-52-52-52s-52,23.3-52,52,23.3,52,52,52,52-23.3,52-52ZM907.9,467.3c18.5-21.6,17.3-54.1-1.8-74.5-19.8-21.1-52.1-20.9-71.5.5-20.1,22.3-18.6,57.5,3.3,78.1,20.3,19,51.6,17.4,70-4.1ZM997.3,625.5c0-28.5-23.1-51.6-51.6-51.6s-51.6,23.1-51.6,51.6,23.1,51.6,51.6,51.6,51.6-23.1,51.6-51.6ZM981.4,841.5c4.6-.1,8.5-1.1,10.6-5-7.1-2.6-6-2.5-12.2-7s-2.4-6.5-3-9.7c-1.3-7.3-3.8-14-5.6-21.4-3.8-.2-7-.3-10.7.2,1,5.1,1.1,9.9,2.5,14.5,3.7,11.8-1.1,6,3.4,15.2s-7.4,13.4-2.8,13.6,11.5-.3,17.8-.4Z"/>
  <path d="M940.3,610.9c-4.6,0-9.9.4-13.9,3.2s-3.9,2-5,3.3c-2.5,2.8-10.7,14.7-17,10.7-9.8-6.2,6.6-36.5,18.1-32.8,1.8.6,3.4,2.7,3.4,5.1v5.5c13.7-4.1,27.2-3.4,40.8-1-1.8-4.6-5.3-13.7-.9-15.9,9.6-4.8,32.5,32,25.5,38.5s-15.8-8.1-18.6-12.9c-7.8-2.9-16.1-4.2-25-4.2l2.2,58.1c0,2.2-1.6,3.9-3.3,4.1s-4-1.5-4.1-4l-2.3-57.5Z"/>
</svg>