<svg width="528" height="936" viewBox="0 0 528 936" fill="none" xmlns="http://www.w3.org/2000/svg">
<g clip-path="url(#clip0_2118_14)">
<path d="M525.273 669.246C498.737 660.435 474.088 647.008 452.586 628.965C446.188 623.616 440.21 618.056 435.909 611.028C432.763 605.888 429.931 600.748 427.518 595.083C416.61 569.069 400.667 545.152 377.487 527.53C390.074 517.354 390.703 500.256 383.571 486.305C394.479 483.263 402.346 475.395 404.548 464.591C414.513 464.906 423.113 463.227 432.133 459.976C454.579 452.003 474.718 438.786 490.555 420.954C496.114 414.66 501.044 407.842 503.352 399.869C504.4 396.093 500.834 392.422 498.317 390.114L432.343 328.329C438.741 303.888 424.687 248.502 398.675 239.481C398.465 218.816 382.207 185.878 366.894 173.605C365.111 172.137 363.223 171.298 360.81 172.032C354.308 173.92 344.238 205.18 341.826 212.313L324.415 201.718L323.89 12.0634C323.89 7.97237 323.471 -0.209627 318.331 0.105065C293.788 -0.104729 267.147 19.1964 255.19 40.7004C245.015 20.8748 213.654 -5.03491 190.789 0.839348C187.328 2.20301 185.44 3.67158 185.545 7.55279L193.516 201.718C188.272 203.291 184.181 205.389 179.356 206.229L157.225 169.2C156.176 167.417 154.603 166.053 152.925 165.948C151.247 165.843 149.778 166.577 148.52 167.941C134.57 183.151 124.501 211.578 123.662 232.243C103.733 248.083 92.8248 274.622 89.9929 299.587C89.2586 305.986 91.5662 312.595 90.5173 318.259C88.7342 324.658 82.6508 330.322 78.1406 335.567C58.4219 358.54 36.3957 378.68 12.5864 397.352C9.64958 399.66 10.4887 403.121 12.4815 406.163C33.1442 437.737 72.3719 461.444 110.97 458.717C112.229 471.409 124.396 484.522 136.458 488.822C133.206 500.151 132.262 515.152 142.017 524.278L2.93683 635.784C1.15375 637.252 0.104887 639.14 0 640.714C0 642.602 1.15375 644.28 3.25149 645.015L74.994 669.77C70.379 675.75 64.9249 679.946 60.7294 686.134C59.3659 688.128 61.2539 693.582 63.7712 694.841L161.84 746.66C164.567 748.129 164.672 750.437 168.658 750.227L202.222 748.444L213.759 774.983C214.493 786.731 212.081 784.633 205.473 791.137C200.858 795.647 197.607 801.102 195.719 807.186C192.572 817.781 205.998 817.151 206.522 820.508C207.046 823.865 203.375 825.963 200.334 825.858C196.977 825.858 193.936 827.222 191.733 829.424C185.44 835.718 177.154 837.711 178.308 845.893C178.727 848.726 180.825 851.663 183.971 852.921L192.782 856.383C196.453 857.852 199.495 859.95 203.795 860.369C201.173 865.404 201.383 869.6 204.424 873.481C201.278 878.202 198.026 879.041 197.607 883.866C197.397 885.545 199.39 887.118 199.914 888.692C198.656 892.363 194.985 894.88 192.467 897.503C182.083 908.412 177.259 905.58 178.203 914.077C178.412 915.86 179.881 918.063 182.188 919.007C185.23 920.266 187.747 918.273 190.579 917.643C209.564 913.762 223.933 917.224 242.184 912.713C248.791 911.035 262.112 913.867 271.971 911.559C275.852 925.615 284.243 921.21 284.243 929.497C284.243 931.804 285.292 934.112 286.656 934.951C288.543 936.21 290.851 936.42 292.739 935.476L303.228 930.336C313.087 925.511 311.094 917.433 315.499 914.916C318.646 913.133 324.1 913.028 326.513 915.65C329.449 918.797 332.072 921.419 336.791 921.315C346.965 921.21 349.378 927.818 367.733 924.671C372.033 923.937 376.124 923.308 379.375 920.161C383.046 916.489 386.193 912.293 389.13 908.098C391.647 904.321 391.333 900.545 390.493 896.454C389.549 891.943 387.032 889.111 381.998 889.636C378.536 889.95 374.865 891.209 371.194 890.58C366.474 889.845 360.286 887.852 358.608 883.027C357.559 879.985 360.286 875.37 361.545 872.957C364.586 867.188 363.013 863.306 360.81 857.957C358.713 853.026 357.244 848.411 350.636 847.572C349.483 831.627 357.035 838.97 357.664 827.956C357.769 825.438 357.769 822.186 359.132 819.879C360.286 817.676 360.915 815.158 362.489 813.165C365.53 809.284 368.887 804.669 367.313 799.424C364.482 789.563 357.139 783.689 363.747 777.605L369.201 772.57C374.236 767.955 377.592 762.71 382.732 757.884C403.185 738.793 425.001 721.904 448.706 707.114C479.123 688.232 470.627 698.512 486.36 691.904C494.331 688.652 510.169 682.778 513.421 674.596C517.616 675.75 526.217 680.47 527.685 674.596C528.21 672.603 527.685 670.085 525.063 669.141L525.273 669.246ZM256.868 91.5757C275.957 92.1001 290.431 111.506 297.564 127.66C283.404 149.584 255.399 161.647 232.219 145.283C226.555 141.297 222.255 136.367 218.584 130.388C223.828 113.289 236.415 91.6806 256.868 91.5757ZM143.066 410.254C126.598 394.834 121.144 371.547 127.018 350.987L228.548 382.247C226.451 390.743 222.465 398.925 216.381 405.953C197.082 428.506 164.358 430.185 142.961 410.254H143.066ZM293.578 798.48C287.075 798.585 281.097 799.214 274.908 798.899C270.083 798.689 281.306 791.766 277.845 784.633C273.125 774.878 278.16 781.067 274.279 768.689C272.81 763.759 272.706 758.724 271.657 753.479C275.538 752.954 278.789 753.059 282.88 753.269C284.663 761.031 287.39 768.059 288.753 775.717C289.383 779.074 288.439 783.479 291.9 785.892C298.403 790.612 297.249 790.507 304.696 793.235C302.493 797.221 298.403 798.375 293.578 798.48ZM256.029 626.133C226.136 626.133 201.907 601.902 201.907 572.006C201.907 542.11 226.136 517.879 256.029 517.879C285.921 517.879 310.15 542.11 310.15 572.006C310.15 601.902 285.921 626.133 256.029 626.133ZM333.12 419.59C309.521 419.59 289.383 404.59 281.831 383.505L385.878 351.407C387.032 355.707 387.557 360.323 387.557 364.938C387.557 395.044 363.118 419.485 333.015 419.485L333.12 419.59Z" fill="black"/>
<path d="M277.321 533.404C272.811 535.711 276.377 545.257 278.265 550.082C264 547.565 249.736 546.831 235.471 551.131V545.362C235.366 542.949 233.688 540.642 231.8 540.012C219.633 536.131 202.432 567.915 212.816 574.419C219.423 578.614 228.024 566.132 230.646 563.195C231.8 561.936 234.317 560.887 235.891 559.733C240.086 556.796 245.645 556.376 250.47 556.376L252.882 616.692C252.987 619.315 254.875 621.098 257.183 620.888C258.966 620.678 260.749 619 260.644 616.587L258.336 555.642C267.566 555.642 276.272 557.006 284.558 560.048C287.495 565.083 298.508 578.719 304.067 573.579C311.409 566.761 287.39 528.159 277.321 533.194V533.404Z" fill="black"/>
<path d="M257.287 143.919C261.053 143.919 264.105 134.151 264.105 122.101C264.105 110.051 261.053 100.282 257.287 100.282C253.522 100.282 250.47 110.051 250.47 122.101C250.47 134.151 253.522 143.919 257.287 143.919Z" fill="black"/>
</g>
<defs>
<clipPath id="clip0_2118_14">
<rect width="528" height="936" fill="white"/>
</clipPath>
</defs>
</svg>
