<svg width="500" height="500" viewBox="0 0 500 500" fill="none" xmlns="http://www.w3.org/2000/svg">
<path fill-rule="evenodd" clip-rule="evenodd" d="M33.6875 3.52095C36.7759 3.55882 39.7838 4.51115 42.3312 6.25764C44.8786 8.00412 46.8513 10.4664 48 13.3334C57.375 36.7501 73.8959 55.7501 91.8334 68.896C108.167 80.896 124.333 87.0626 135.771 88.2293C170.175 67.2522 209.705 56.1855 250 56.2501C290.295 56.1855 329.825 67.2522 364.229 88.2293C375.688 87.0626 391.854 80.896 408.208 68.896C426.146 55.7709 442.688 36.7501 452.042 13.3334C453.188 10.4623 455.161 7.99576 457.71 6.2461C460.259 4.49644 463.269 3.54227 466.361 3.50435C469.452 3.46643 472.485 4.34647 475.077 6.03309C477.668 7.71971 479.7 10.1371 480.917 12.9793C513.208 88.3751 491.229 166.708 458.417 206.021C465.993 228.587 469.835 252.238 469.792 276.042C469.792 397.438 371.396 495.833 250 495.833C128.604 495.833 30.2084 397.438 30.2084 276.042C30.2084 251.542 34.2084 227.979 41.6042 205.979C8.81254 166.646 -13.1666 88.3335 19.125 12.9793C20.3478 10.143 22.3838 7.73281 24.9757 6.05307C27.5676 4.37334 30.5992 3.49944 33.6875 3.54178V3.52095ZM139.104 208.292C143.2 205.847 147.743 204.247 152.466 203.584C157.19 202.921 161.998 203.21 166.608 204.433C171.218 205.656 175.538 207.788 179.311 210.705C183.085 213.622 186.238 217.264 188.583 221.417C190.672 224.997 194.097 227.601 198.106 228.656C202.114 229.711 206.378 229.13 209.958 227.042C213.539 224.953 216.143 221.528 217.198 217.519C218.253 213.511 217.672 209.247 215.583 205.667C211.17 197.97 205.272 191.227 198.232 185.827C191.192 180.428 183.15 176.48 174.572 174.212C165.995 171.945 157.052 171.403 148.264 172.618C139.475 173.834 131.015 176.782 123.375 181.292C119.795 183.38 117.191 186.806 116.136 190.814C115.081 194.823 115.661 199.086 117.75 202.667C119.839 206.247 123.264 208.851 127.273 209.906C131.281 210.961 135.524 210.38 139.104 208.292ZM286.5 205.667C290.914 197.97 296.812 191.227 303.852 185.827C310.891 180.428 318.934 176.48 327.511 174.212C336.089 171.945 345.031 171.403 353.82 172.618C362.608 173.834 371.068 176.782 378.708 181.292C382.289 183.38 384.893 186.806 385.948 190.814C387.003 194.823 386.422 199.086 384.333 202.667C382.245 206.247 378.819 208.851 374.811 209.906C370.802 210.961 366.539 210.38 362.958 208.292C358.864 205.851 354.322 204.253 349.601 203.592C344.88 202.931 340.074 203.22 335.466 204.443C330.859 205.666 326.542 207.797 322.769 210.712C318.997 213.627 315.846 217.267 313.5 221.417C311.411 224.997 307.986 227.601 303.978 228.656C299.969 229.711 295.705 229.13 292.125 227.042C288.545 224.953 285.941 221.528 284.886 217.519C283.831 213.511 284.411 209.247 286.5 205.667ZM252.083 316.667C236.848 316.577 221.683 318.747 207.083 323.104C194.146 327.125 181.417 333.521 173.417 343.104C172.102 344.68 171.111 346.5 170.499 348.458C169.888 350.417 169.668 352.478 169.853 354.522C170.038 356.565 170.623 358.553 171.576 360.37C172.529 362.188 173.83 363.8 175.406 365.115C176.982 366.429 178.801 367.421 180.76 368.032C182.719 368.644 184.78 368.863 186.824 368.678C188.867 368.494 190.855 367.908 192.672 366.955C194.49 366.003 196.102 364.701 197.417 363.125C199.833 360.229 205.854 356.208 216.375 352.938C227.973 349.547 240.001 347.856 252.083 347.917C279.208 347.917 299.333 355.833 307.708 364.167C310.67 366.927 314.588 368.429 318.636 368.358C322.684 368.287 326.546 366.647 329.409 363.784C332.272 360.921 333.911 357.059 333.983 353.011C334.054 348.963 332.552 345.045 329.792 342.083C313.146 325.417 283.292 316.667 252.083 316.667ZM173.958 244.792C177.036 244.792 180.084 245.398 182.928 246.576C185.771 247.754 188.355 249.48 190.531 251.656C192.708 253.833 194.434 256.417 195.612 259.26C196.79 262.104 197.396 265.151 197.396 268.229C197.396 271.307 196.79 274.355 195.612 277.198C194.434 280.042 192.708 282.626 190.531 284.802C188.355 286.978 185.771 288.705 182.928 289.883C180.084 291.061 177.036 291.667 173.958 291.667C167.742 291.667 161.781 289.197 157.386 284.802C152.99 280.407 150.521 274.445 150.521 268.229C150.521 262.013 152.99 256.052 157.386 251.656C161.781 247.261 167.742 244.792 173.958 244.792ZM330.208 244.792C333.286 244.792 336.334 245.398 339.178 246.576C342.021 247.754 344.605 249.48 346.781 251.656C348.958 253.833 350.684 256.417 351.862 259.26C353.04 262.104 353.646 265.151 353.646 268.229C353.646 271.307 353.04 274.355 351.862 277.198C350.684 280.042 348.958 282.626 346.781 284.802C344.605 286.978 342.021 288.705 339.178 289.883C336.334 291.061 333.286 291.667 330.208 291.667C323.992 291.667 318.031 289.197 313.636 284.802C309.24 280.407 306.771 274.445 306.771 268.229C306.771 262.013 309.24 256.052 313.636 251.656C318.031 247.261 323.992 244.792 330.208 244.792Z" fill="#0E0E18"/>
</svg>
