<svg width="478" height="475" viewBox="0 0 478 475" fill="none" xmlns="http://www.w3.org/2000/svg">
<rect width="478" height="475" rx="50" fill="#0E0E18"/>
<path d="M155.125 272.594C154.938 272.969 154.531 273.344 153.906 273.719C153.406 273.969 153.062 274.156 152.875 274.281C152.75 274.469 152.625 274.562 152.5 274.562C151.812 274.688 151.312 274.594 151 274.281C150.125 274.531 149.312 274.625 148.562 274.562C147.875 274.5 147.188 274.562 146.5 274.75C146.188 274.812 145.938 274.906 145.75 275.031C145.562 275.219 145.344 275.375 145.094 275.5C144.719 275.625 144.375 275.656 144.062 275.594C143.812 275.594 143.5 275.594 143.125 275.594C142.875 275.406 142.656 275.156 142.469 274.844C142.344 274.594 142.219 274.312 142.094 274C141.594 273.625 141.219 273.25 140.969 272.875C140.844 272.75 140.719 272.594 140.594 272.406C140.531 272.156 140.438 271.969 140.312 271.844C139.875 271.281 139.531 270.75 139.281 270.25C139.031 269.688 138.844 269.219 138.719 268.844C138.531 268.594 138.312 268.344 138.062 268.094C137.875 267.844 137.688 267.562 137.5 267.25C137.312 267 137.094 266.75 136.844 266.5C136.594 266.188 136.406 265.906 136.281 265.656C136.156 265.406 136.094 265.188 136.094 265C136.094 264.75 136.031 264.5 135.906 264.25C135.719 263.875 135.469 263.531 135.156 263.219C134.906 262.906 134.75 262.5 134.688 262C134.438 261.75 134.188 261.5 133.938 261.25C133.75 260.938 133.438 260.719 133 260.594C132.875 260.156 132.656 259.812 132.344 259.562C132.094 259.25 131.875 258.844 131.688 258.344C131.562 258.156 131.375 257.75 131.125 257.125C131 256.938 130.906 256.75 130.844 256.562C130.844 256.312 130.781 256.094 130.656 255.906C130.469 255.594 130.188 255.344 129.812 255.156C129.5 254.969 129.281 254.625 129.156 254.125C128.656 254.125 128.312 254 128.125 253.75C128 253.438 127.719 253.25 127.281 253.188C126.969 252.562 126.562 252 126.062 251.5C125.625 251 125.219 250.406 124.844 249.719C123.969 249.281 123.188 248.719 122.5 248.031C121.812 247.344 121 246.75 120.062 246.25C119.812 245.688 119.25 245.344 118.375 245.219C118.062 245.656 117.938 246.188 118 246.812C118.062 247.375 118.031 247.938 117.906 248.5C117.844 249.188 117.719 249.875 117.531 250.562C117.406 251.188 117.25 251.75 117.062 252.25C116.938 252.562 116.969 252.781 117.156 252.906C117.344 252.969 117.406 253.156 117.344 253.469C117.281 253.656 117.188 253.875 117.062 254.125C117 254.375 117 254.625 117.062 254.875C117.062 255.188 117.125 255.5 117.25 255.812C117.438 256.062 117.531 256.406 117.531 256.844C117.594 257.281 117.531 257.844 117.344 258.531C117.219 259.219 117.125 259.812 117.062 260.312C117.125 260.812 117.125 261.125 117.062 261.25C117.062 261.375 117.062 261.5 117.062 261.625C117.062 262.125 117.062 262.562 117.062 262.938C117.062 263.312 117.031 263.719 116.969 264.156C117.031 264.844 117 265.375 116.875 265.75C116.75 266.062 116.656 266.375 116.594 266.688C116.719 267.125 116.75 267.375 116.688 267.438C116.625 267.5 116.594 267.594 116.594 267.719C116.594 267.906 116.625 268.094 116.688 268.281C116.75 268.469 116.75 268.625 116.688 268.75C116.625 269.438 116.5 269.969 116.312 270.344C116.188 270.719 116.188 271.25 116.312 271.938C116.438 272.375 116.531 272.656 116.594 272.781C116.656 272.969 116.656 273.125 116.594 273.25C116.531 273.688 116.312 274.062 115.938 274.375C115.562 274.688 115.375 275.031 115.375 275.406C114.625 275.344 113.938 275.406 113.312 275.594C112.75 275.781 112.188 275.719 111.625 275.406C111.188 275.531 110.656 275.656 110.031 275.781C109.406 275.906 108.812 275.938 108.25 275.875C107.562 275.688 107.094 275.625 106.844 275.688C106.656 275.75 106.5 275.719 106.375 275.594C106.25 274.344 106.094 273.312 105.906 272.5C105.719 271.688 105.875 270.969 106.375 270.344C106.375 270.156 106.344 269.969 106.281 269.781C106.219 269.594 106.219 269.375 106.281 269.125C106.344 268.438 106.312 267.938 106.188 267.625C106.125 267.312 106.094 267.031 106.094 266.781C106.156 266.531 106.219 266.312 106.281 266.125C106.406 265.938 106.469 265.75 106.469 265.562C106.531 265.25 106.5 264.938 106.375 264.625C106.25 264.25 106.188 263.875 106.188 263.5C106.188 263.188 106.219 262.844 106.281 262.469C106.344 262.094 106.375 261.75 106.375 261.438C106.375 261.125 106.281 260.781 106.094 260.406C105.969 260.031 106.031 259.656 106.281 259.281C106.406 259.031 106.438 258.656 106.375 258.156C106.375 257.656 106.375 257.156 106.375 256.656C106.375 256.344 106.375 256.062 106.375 255.812C106.438 255.562 106.5 255.281 106.562 254.969C106.562 254.594 106.531 254.25 106.469 253.938C106.469 253.562 106.469 253.219 106.469 252.906C106.469 252.781 106.5 252.625 106.562 252.438C106.625 252.188 106.625 252 106.562 251.875C106.438 251.312 106.375 250.875 106.375 250.562C106.438 250.25 106.469 250 106.469 249.812C106.531 249.5 106.531 249.188 106.469 248.875C106.469 248.5 106.5 248.094 106.562 247.656C106.562 247.406 106.531 247.156 106.469 246.906C106.406 246.656 106.406 246.375 106.469 246.062C106.531 245.5 106.531 245.125 106.469 244.938C106.406 244.75 106.344 244.562 106.281 244.375C106.281 244.188 106.312 244 106.375 243.812C106.438 243.625 106.469 243.406 106.469 243.156C106.469 242.656 106.406 242.094 106.281 241.469C106.156 240.844 106.094 240.281 106.094 239.781C106.219 238.531 106.156 237.844 105.906 237.719C106.031 237.406 106.125 237.125 106.188 236.875C106.25 236.625 106.312 236.344 106.375 236.031C106.375 235.594 106.344 235.156 106.281 234.719C106.219 234.281 106.25 233.719 106.375 233.031C106.438 232.906 106.5 232.75 106.562 232.562C106.688 232.375 106.75 232.188 106.75 232C106.75 231.75 106.719 231.5 106.656 231.25C106.594 231 106.594 230.719 106.656 230.406C106.656 229.844 106.688 229.25 106.75 228.625C106.812 228 106.906 227.375 107.031 226.75C107.156 226.188 107.188 225.781 107.125 225.531C107.062 225.281 107.031 225.062 107.031 224.875C107.031 224.438 107.094 224.031 107.219 223.656C107.344 223.281 107.344 222.844 107.219 222.344C107.219 222.219 107.188 222.062 107.125 221.875C107.125 221.625 107.125 221.344 107.125 221.031C107.188 220.406 107.188 219.969 107.125 219.719C107.062 219.406 107.031 219.125 107.031 218.875C107.156 218.375 107.188 218.094 107.125 218.031C107.062 217.969 107.031 217.875 107.031 217.75C107.156 217.5 107.188 217.344 107.125 217.281C107.062 217.156 107.031 216.969 107.031 216.719C107.094 216.219 107.125 215.812 107.125 215.5C107.188 215.125 107.188 214.625 107.125 214C107 213.562 106.969 213.312 107.031 213.25C107.156 213.188 107.188 213.094 107.125 212.969C107.125 212.781 107.062 212.562 106.938 212.312C106.812 212.062 106.688 211.812 106.562 211.562C106.688 211.188 106.719 210.75 106.656 210.25C106.594 209.75 106.594 209.25 106.656 208.75C106.656 208.625 106.688 208.469 106.75 208.281C106.812 208.031 106.844 207.844 106.844 207.719C106.656 207.219 106.531 206.875 106.469 206.688C106.469 206.438 106.438 206.25 106.375 206.125C106.312 205.875 106.219 205.625 106.094 205.375C105.969 205.125 105.906 204.906 105.906 204.719C105.906 204.344 106 204 106.188 203.688C106.375 203.375 106.562 203.062 106.75 202.75C106.875 202.625 107 202.531 107.125 202.469C107.312 202.344 107.531 202.312 107.781 202.375C107.906 202.25 108.031 202.125 108.156 202C108.344 201.812 108.531 201.656 108.719 201.531C109.219 201.406 109.594 201.469 109.844 201.719C110.156 201.906 110.469 202.062 110.781 202.188C111.281 202.062 111.812 202.031 112.375 202.094C112.938 202.094 113.562 202.031 114.25 201.906C114.812 201.781 115.219 201.75 115.469 201.812C115.719 201.812 115.906 201.812 116.031 201.812C116.844 201.625 117.5 201.531 118 201.531C118.5 201.531 118.938 201.562 119.312 201.625C119.812 201.625 120.094 201.656 120.156 201.719C120.281 201.781 120.406 201.812 120.531 201.812C120.844 201.688 121.125 201.688 121.375 201.812C121.625 201.875 121.875 201.938 122.125 202C122.625 202.062 123.125 202.094 123.625 202.094C124.125 202.094 124.625 202.125 125.125 202.188C125.625 202.25 126.125 202.312 126.625 202.375C127.188 202.438 127.719 202.562 128.219 202.75C128.406 202.812 128.594 202.906 128.781 203.031C128.969 203.156 129.156 203.25 129.344 203.312C129.594 203.375 129.875 203.406 130.188 203.406C130.562 203.344 130.906 203.375 131.219 203.5C131.906 203.625 132.562 203.844 133.188 204.156C133.875 204.406 134.562 204.594 135.25 204.719C135.562 204.844 135.906 204.969 136.281 205.094C136.656 205.156 137 205.312 137.312 205.562C138.188 205.562 138.969 205.656 139.656 205.844C140.344 205.969 140.938 206.156 141.438 206.406C141.75 206.531 142.094 206.656 142.469 206.781C142.906 206.906 143.25 207.094 143.5 207.344C143.812 207.594 144.094 207.812 144.344 208C144.594 208.188 144.844 208.406 145.094 208.656C145.469 208.969 145.688 209.219 145.75 209.406C145.875 209.531 146 209.656 146.125 209.781C146.5 210.094 146.719 210.344 146.781 210.531C146.906 210.719 147.031 210.844 147.156 210.906C147.469 211.094 147.688 211.281 147.812 211.469C148 211.594 148.188 211.688 148.375 211.75C148.5 212.25 148.719 212.625 149.031 212.875C149.406 213.125 149.75 213.406 150.062 213.719C150.375 214.281 150.562 214.719 150.625 215.031C150.688 215.344 150.844 215.562 151.094 215.688C151.406 216.75 151.594 217.688 151.656 218.5C151.719 219.312 152 219.938 152.5 220.375C152.438 220.875 152.469 221.344 152.594 221.781C152.781 222.156 152.969 222.562 153.156 223C153.031 223.312 153 223.625 153.062 223.938C153.125 224.188 153.156 224.469 153.156 224.781C153.156 225.094 153.062 225.406 152.875 225.719C152.75 226.031 152.812 226.312 153.062 226.562C152.812 227.312 152.562 228.094 152.312 228.906C152.125 229.656 151.812 230.375 151.375 231.062C151.25 231.188 151.156 231.344 151.094 231.531C151.031 231.656 150.844 231.719 150.531 231.719C150.594 232.094 150.531 232.375 150.344 232.562C150.156 232.688 150.062 232.906 150.062 233.219C149.562 233.531 149.156 233.844 148.844 234.156C148.594 234.406 148.312 234.781 148 235.281C147.812 235.531 147.625 235.719 147.438 235.844C147.312 235.969 147.094 236.125 146.781 236.312C146.281 236.625 145.906 236.844 145.656 236.969C145.406 237.094 145.188 237.219 145 237.344C144.562 237.531 144.281 237.688 144.156 237.812C144.094 237.938 144 238.031 143.875 238.094C143.688 238.219 143.469 238.344 143.219 238.469C143.031 238.531 142.844 238.625 142.656 238.75C142.281 239.062 142 239.25 141.812 239.312C141.688 239.375 141.594 239.438 141.531 239.5C140.969 239.75 140.344 240 139.656 240.25C139.031 240.438 138.406 240.75 137.781 241.188C137.469 241.062 137.156 241.094 136.844 241.281C136.531 241.469 136.188 241.625 135.812 241.75C135.312 241.875 134.875 241.938 134.5 241.938C134.188 241.875 133.969 242.094 133.844 242.594C133.719 243.031 133.844 243.344 134.219 243.531C134.656 243.719 135.062 243.969 135.438 244.281C135.562 244.594 135.719 244.906 135.906 245.219C136.156 245.469 136.469 245.656 136.844 245.781C137.344 246.281 137.625 246.719 137.688 247.094C137.812 247.469 138.125 247.688 138.625 247.75C138.75 248.062 139 248.469 139.375 248.969C139.812 249.344 140.031 249.594 140.031 249.719C140.094 249.844 140.156 249.969 140.219 250.094C140.531 250.594 140.75 250.875 140.875 250.938C141 251 141.062 251.094 141.062 251.219C141.312 251.594 141.562 252 141.812 252.438C142.125 252.875 142.344 253.344 142.469 253.844C142.656 254.031 142.844 254.219 143.031 254.406C143.219 254.594 143.438 254.781 143.688 254.969C143.688 255.219 143.719 255.406 143.781 255.531C143.906 255.656 143.969 255.844 143.969 256.094C144.344 256.531 144.75 256.969 145.188 257.406C145.625 257.844 145.938 258.406 146.125 259.094C146.312 259.219 146.469 259.375 146.594 259.562C146.719 259.688 146.906 259.781 147.156 259.844C147.344 260.469 147.625 261.031 148 261.531C148.438 261.969 148.844 262.469 149.219 263.031C149.406 263.344 149.688 263.656 150.062 263.969C150.312 264.281 150.531 264.625 150.719 265C150.906 265.312 151.125 265.625 151.375 265.938C151.688 266.438 151.906 266.875 152.031 267.25C152.219 267.562 152.469 267.781 152.781 267.906C152.844 268.219 152.938 268.469 153.062 268.656C153.25 268.781 153.312 269.031 153.25 269.406C153.5 269.531 153.75 269.688 154 269.875C154.25 270 154.531 270.125 154.844 270.25C154.969 270.75 155.062 271.188 155.125 271.562C155.25 271.875 155.25 272.219 155.125 272.594ZM142.094 222.906C141.781 222.281 141.594 221.844 141.531 221.594C141.531 221.344 141.5 221.156 141.438 221.031C141.375 220.844 141.25 220.688 141.062 220.562C140.938 220.438 140.812 220.281 140.688 220.094C140.375 219.469 140.094 219.062 139.844 218.875C139.656 218.75 139.5 218.594 139.375 218.406C139.25 218.156 139.094 218 138.906 217.938C138.406 217.562 138.062 217.25 137.875 217C137.75 216.75 137.531 216.656 137.219 216.719C137.094 216.344 136.812 216.125 136.375 216.062C136 215.938 135.75 215.688 135.625 215.312C135.125 215.25 134.719 215.125 134.406 214.938C134.094 214.75 133.75 214.531 133.375 214.281C133.188 214.344 133 214.438 132.812 214.562C132.688 214.688 132.469 214.719 132.156 214.656C131.844 214.594 131.562 214.5 131.312 214.375C131.125 214.25 130.875 214.156 130.562 214.094C129.875 214.156 129.375 214.156 129.062 214.094C128.75 213.969 128.5 213.906 128.312 213.906C127.688 213.656 127.188 213.531 126.812 213.531C126.312 213.469 125.781 213.5 125.219 213.625C124.656 213.688 124.094 213.75 123.531 213.812C122.469 213.812 121.438 213.75 120.438 213.625C119.438 213.5 118.438 213.5 117.438 213.625C117.312 213.875 117.312 214.094 117.438 214.281C117.625 214.406 117.719 214.625 117.719 214.938C117.656 215.625 117.656 216.125 117.719 216.438C117.781 216.688 117.812 216.938 117.812 217.188C117.688 217.688 117.656 218 117.719 218.125C117.781 218.25 117.812 218.344 117.812 218.406V220C117.688 220.812 117.625 221.625 117.625 222.438C117.688 223.188 117.688 223.969 117.625 224.781C117.625 225.719 117.594 226.562 117.531 227.312C117.531 228 117.5 228.719 117.438 229.469C117.5 230.156 117.469 230.625 117.344 230.875C117.281 231.062 117.25 231.281 117.25 231.531C117.188 232.156 117.25 232.844 117.438 233.594C118.125 233.781 118.781 233.875 119.406 233.875C120.094 233.875 120.594 233.875 120.906 233.875C121.344 233.938 121.594 233.969 121.656 233.969C121.781 233.906 121.969 233.875 122.219 233.875C122.844 233.938 123.406 234.031 123.906 234.156C124.469 234.219 125.062 234.188 125.688 234.062C126 234.062 126.281 234.062 126.531 234.062C126.844 234 127.156 233.938 127.469 233.875C127.969 233.688 128.312 233.594 128.5 233.594C128.75 233.594 128.938 233.594 129.062 233.594C129.75 233.344 130.219 233.219 130.469 233.219C130.719 233.156 130.906 233.094 131.031 233.031C132.281 232.531 133.188 232.188 133.75 232C134.625 231.688 135.281 231.469 135.719 231.344C136.219 231.219 136.656 231.125 137.031 231.062C137.219 230.5 137.594 230.156 138.156 230.031C138.719 229.906 139.062 229.5 139.188 228.812C139.375 228.688 139.562 228.625 139.75 228.625C140 228.625 140.156 228.5 140.219 228.25C140.406 227.688 140.594 227.094 140.781 226.469C140.969 225.844 141.219 225.312 141.531 224.875C141.469 224.375 141.5 224.062 141.625 223.938C141.812 223.75 141.969 223.406 142.094 222.906ZM179.781 205.469C179.906 205.594 179.938 206.031 179.875 206.781C179.812 207.531 179.719 208.062 179.594 208.375C179.531 208.562 179.438 208.75 179.312 208.938C179.188 209.062 179.062 209.188 178.938 209.312C178.812 210.062 178.625 210.656 178.375 211.094C178.125 211.531 177.938 211.906 177.812 212.219C177.5 212.344 177.188 212.531 176.875 212.781C176.625 212.969 176.344 213.125 176.031 213.25C175.281 213.5 174.656 213.75 174.156 214C173.656 214.188 173.156 214.281 172.656 214.281C172.406 214.281 172.188 214.25 172 214.188C171.812 214.062 171.625 213.969 171.438 213.906C171.125 213.844 170.812 213.812 170.5 213.812C170.188 213.812 169.875 213.781 169.562 213.719C169.25 213.156 168.875 212.656 168.438 212.219C168.062 211.719 167.781 211.125 167.594 210.438C167.406 210.188 167.125 209.875 166.75 209.5C166.75 209 166.656 208.562 166.469 208.188C166.281 207.75 166.188 207.281 166.188 206.781C166.188 206.406 166.312 205.906 166.562 205.281C166.625 204.969 166.656 204.656 166.656 204.344C166.719 204.031 166.781 203.812 166.844 203.688C167.281 203.188 167.594 202.906 167.781 202.844C167.969 202.719 168.125 202.562 168.25 202.375C168.5 201.938 168.625 201.656 168.625 201.531C168.625 201.406 168.656 201.281 168.719 201.156C168.906 200.906 169.156 200.688 169.469 200.5C169.844 200.25 170.188 200.031 170.5 199.844C170.812 199.594 171.219 199.5 171.719 199.562C172.219 199.562 172.812 199.531 173.5 199.469C173.75 199.969 174.156 200.312 174.719 200.5C175.281 200.688 175.719 201.031 176.031 201.531C176.531 201.656 176.844 201.75 176.969 201.812C177.094 201.812 177.219 201.875 177.344 202C178.406 202.75 179.188 203.75 179.688 205L179.781 205.469ZM180.062 221.688C179.938 222.312 179.812 222.938 179.688 223.562C179.625 224.125 179.625 224.781 179.688 225.531C179.688 225.844 179.719 226.125 179.781 226.375C179.906 226.625 179.969 226.906 179.969 227.219C179.969 227.656 179.906 228.125 179.781 228.625C179.656 229.062 179.594 229.531 179.594 230.031C179.594 230.531 179.594 231 179.594 231.438C179.594 231.812 179.625 232.25 179.688 232.75C179.688 233 179.719 233.188 179.781 233.312C179.844 233.375 179.812 233.531 179.688 233.781C179.312 234.656 179.219 235.781 179.406 237.156C179.594 238.531 179.688 239.75 179.688 240.812C179.625 241.438 179.531 242.062 179.406 242.688C179.281 243.312 179.188 243.969 179.125 244.656C179 246.094 178.906 247.531 178.844 248.969C178.844 250.344 178.781 251.719 178.656 253.094C178.594 253.469 178.562 253.875 178.562 254.312C178.625 254.688 178.625 255.031 178.562 255.344C178.5 256.219 178.406 257.062 178.281 257.875C178.219 258.688 178.125 259.469 178 260.219C177.938 260.781 177.938 261.344 178 261.906C178.062 262.406 178.094 262.938 178.094 263.5C178.094 263.812 178.094 264.094 178.094 264.344C178.156 264.594 178.188 264.875 178.188 265.188C178.25 265.438 178.312 265.688 178.375 265.938C178.438 266.125 178.469 266.375 178.469 266.688C178.406 266.938 178.375 267.156 178.375 267.344C178.375 267.469 178.375 267.594 178.375 267.719C178.375 267.844 178.406 267.938 178.469 268C178.344 268.5 178.312 268.844 178.375 269.031C178.438 269.156 178.469 269.281 178.469 269.406C178.406 269.594 178.312 269.812 178.188 270.062C178.125 270.25 178.094 270.5 178.094 270.812C178.094 271.312 178.125 271.812 178.188 272.312C178.312 272.75 178.312 273.219 178.188 273.719C177.75 273.906 177.344 274.094 176.969 274.281C176.594 274.531 176.062 274.562 175.375 274.375C175.062 274.25 174.875 274 174.812 273.625C174.75 273.25 174.594 272.938 174.344 272.688C173.844 272.625 173.406 272.531 173.031 272.406C172.719 272.281 172.406 272.125 172.094 271.938C171.844 272.062 171.5 272.094 171.062 272.031C170.688 271.906 170.281 271.812 169.844 271.75C169.344 271.625 168.875 271.562 168.438 271.562C168 271.562 167.656 271.5 167.406 271.375C167.031 270.875 166.812 270.438 166.75 270.062C166.75 269.625 166.625 269.312 166.375 269.125C166.625 268.562 166.781 268.062 166.844 267.625C166.969 267 166.969 266.438 166.844 265.938C166.719 265.375 166.688 264.781 166.75 264.156C166.75 263.969 166.812 263.625 166.938 263.125C167 262.688 167.031 262.312 167.031 262C167.031 261.688 167.062 261.375 167.125 261.062C167.188 260.562 167.25 260.281 167.312 260.219C167.375 260.094 167.438 259.969 167.5 259.844C167.562 258.781 167.594 257.688 167.594 256.562C167.656 255.438 167.719 254.625 167.781 254.125C167.781 253.812 167.781 253.594 167.781 253.469C167.844 253.281 167.875 253.031 167.875 252.719C167.875 251.469 167.906 250.406 167.969 249.531C168.094 248.594 168.125 247.625 168.062 246.625C168 245.938 168 245.312 168.062 244.75C168.188 244.188 168.25 243.625 168.25 243.062C168.312 242.375 168.281 241.781 168.156 241.281C168.094 240.719 168.219 240.156 168.531 239.594C168.281 238.969 168.188 238.344 168.25 237.719C168.375 237.094 168.438 236.5 168.438 235.938C168.438 235.438 168.438 234.969 168.438 234.531C168.438 234.094 168.469 233.625 168.531 233.125C168.531 232.812 168.5 232.5 168.438 232.188C168.375 231.812 168.406 231.469 168.531 231.156C168.594 230.469 168.625 230 168.625 229.75C168.688 229.438 168.719 229.219 168.719 229.094C168.719 228.844 168.656 228.625 168.531 228.438C168.469 228.25 168.438 228.062 168.438 227.875C168.438 227.625 168.438 227.406 168.438 227.219C168.5 227.031 168.5 226.844 168.438 226.656C168.312 225.906 168.219 225.406 168.156 225.156C168.156 224.844 168.188 224.594 168.25 224.406C168.188 224.094 168 223.906 167.688 223.844C167.375 223.781 167.156 223.625 167.031 223.375C166.906 222.875 166.781 222.344 166.656 221.781C166.531 221.156 166.688 220.688 167.125 220.375C167.438 220.25 167.719 220.219 167.969 220.281C168.281 220.281 168.656 220.312 169.094 220.375C169.469 220.5 169.719 220.531 169.844 220.469C169.969 220.406 170.094 220.406 170.219 220.469C170.406 220.531 170.594 220.625 170.781 220.75C171.031 220.812 171.281 220.875 171.531 220.938C172.156 221 172.875 221 173.688 220.938C174.5 220.875 175.281 220.812 176.031 220.75C176.844 220.625 177.562 220.562 178.188 220.562C178.812 220.5 179.25 220.562 179.5 220.75C179.688 220.875 179.781 221.062 179.781 221.312C179.781 221.5 179.875 221.625 180.062 221.688ZM219.906 225.719C219.844 226.344 219.844 226.781 219.906 227.031C219.969 227.281 219.969 227.469 219.906 227.594C219.781 228.031 219.562 228.344 219.25 228.531C218.938 228.656 218.656 228.844 218.406 229.094C217.781 228.781 217.219 228.719 216.719 228.906C216.219 229.094 215.719 229.25 215.219 229.375C215.094 229.375 214.875 229.406 214.562 229.469C214.312 229.469 214.125 229.469 214 229.469C213.5 229.469 213.031 229.562 212.594 229.75C212.156 229.938 211.75 230.062 211.375 230.125C211.062 230.188 210.781 230.188 210.531 230.125C210.281 230.062 210 230.125 209.688 230.312C209.438 230.875 209.344 231.5 209.406 232.188C209.531 232.812 209.531 233.469 209.406 234.156C209.281 235.156 209.25 235.969 209.312 236.594C209.438 237.156 209.5 237.688 209.5 238.188C209.5 238.75 209.469 239.281 209.406 239.781C209.406 240.281 209.531 240.75 209.781 241.188C209.594 241.562 209.469 242.031 209.406 242.594C209.406 243.094 209.406 243.594 209.406 244.094C209.281 244.969 209.281 245.969 209.406 247.094C209.531 248.219 209.594 249.219 209.594 250.094C209.531 250.531 209.469 250.938 209.406 251.312C209.406 251.625 209.375 251.969 209.312 252.344C209.188 252.844 209.156 253.156 209.219 253.281C209.281 253.406 209.312 253.531 209.312 253.656C209.25 254.281 209.219 255 209.219 255.812C209.281 256.625 209.281 257.469 209.219 258.344C209.219 258.906 209.188 259.312 209.125 259.562C209.062 259.812 209.031 260.031 209.031 260.219C209.094 260.719 209.156 261.25 209.219 261.812C209.344 262.375 209.188 262.938 208.75 263.5C208.75 263.688 208.781 263.875 208.844 264.062C208.969 264.188 209.062 264.344 209.125 264.531C209 265.031 208.969 265.406 209.031 265.656C209.156 265.906 209.219 266.094 209.219 266.219C209.094 266.906 209.062 267.5 209.125 268C209.188 268.438 209.25 268.875 209.312 269.312C209.312 271.25 208.906 272.531 208.094 273.156C207.281 273.031 206.469 272.906 205.656 272.781C204.906 272.656 204.125 272.656 203.312 272.781C202.938 272.844 202.562 272.906 202.188 272.969C201.812 273.094 201.375 273.062 200.875 272.875C200.562 272.938 200.344 273 200.219 273.062C200.094 273.188 199.906 273.25 199.656 273.25C199.406 273.312 199.188 273.25 199 273.062C198.812 272.875 198.594 272.75 198.344 272.688C198.219 271.938 198.188 271 198.25 269.875C198.375 268.75 198.406 267.562 198.344 266.312C198.344 266 198.312 265.75 198.25 265.562C198.188 265.312 198.125 265.031 198.062 264.719C198 264.281 197.969 263.844 197.969 263.406C198.031 262.906 198.031 262.406 197.969 261.906C197.969 261.719 198 261.531 198.062 261.344C198.125 261.094 198.156 260.875 198.156 260.688C198.156 260.438 198.094 260.312 197.969 260.312C197.906 260.25 197.875 260.031 197.875 259.656C197.875 258.844 197.938 258.094 198.062 257.406C198.25 256.719 198.406 256.031 198.531 255.344C198.406 254.594 198.344 254.062 198.344 253.75C198.344 253.375 198.344 253.062 198.344 252.812C198.281 252.562 198.188 252.281 198.062 251.969C197.938 251.656 197.875 251.344 197.875 251.031C197.875 250.781 197.875 250.594 197.875 250.469C197.938 250.344 197.906 250.125 197.781 249.812C197.719 248.75 197.719 247.812 197.781 247C197.906 246.125 197.938 245.281 197.875 244.469C197.688 243.781 197.594 243.25 197.594 242.875C197.594 242.438 197.562 242.062 197.5 241.75C197.438 241.312 197.375 240.844 197.312 240.344C197.312 239.844 197.344 239.312 197.406 238.75C197.406 238.5 197.438 238.281 197.5 238.094C197.562 237.906 197.594 237.688 197.594 237.438C197.594 237.125 197.531 236.844 197.406 236.594C197.344 236.344 197.312 236.062 197.312 235.75C197.312 235.25 197.344 234.719 197.406 234.156C197.531 233.594 197.594 233.062 197.594 232.562C197.531 232.375 197.469 232.188 197.406 232C197.344 231.75 197.312 231.531 197.312 231.344C197.25 230.719 197.281 230.125 197.406 229.562C197.594 229 197.625 228.438 197.5 227.875C196.25 228.125 195.25 228.375 194.5 228.625C194.25 228.688 194 228.75 193.75 228.812C193.562 228.812 193.312 228.875 193 229C192.5 229.125 192.094 229.25 191.781 229.375C191.469 229.5 191.125 229.406 190.75 229.094C190.188 228.594 189.844 228.188 189.719 227.875C189.656 227.375 189.719 226.969 189.906 226.656C190.156 226.344 190.438 226.031 190.75 225.719C190.625 225.469 190.625 225.281 190.75 225.156C190.875 225.031 190.969 224.812 191.031 224.5C191.094 224.188 191.094 223.875 191.031 223.562C191.031 223.188 191.094 222.812 191.219 222.438C191.344 222.062 191.5 221.719 191.688 221.406C191.875 221.094 192 220.781 192.062 220.469C192.125 220.031 192.094 219.594 191.969 219.156C191.844 218.719 191.844 218.281 191.969 217.844C192.156 216.781 192.938 216.375 194.312 216.625C194.688 216.75 195.031 216.844 195.344 216.906C195.656 216.969 195.875 217.156 196 217.469C196.562 217.406 196.969 217.469 197.219 217.656C197.531 217.844 197.938 217.938 198.438 217.938C198.875 217.375 199.062 216.625 199 215.688C198.938 214.75 198.938 213.75 199 212.688C199.125 212.125 199.156 211.719 199.094 211.469C199.031 211.219 198.969 210.969 198.906 210.719C198.781 209.781 198.812 208.906 199 208.094C199.062 207.906 199.125 207.719 199.188 207.531C199.25 207.281 199.281 207.062 199.281 206.875C199.281 206.375 199.188 205.938 199 205.562C199 205.188 198.938 204.906 198.812 204.719C198.75 204.531 198.656 204.375 198.531 204.25C198.469 204.125 198.406 204.031 198.344 203.969C198.281 203.844 198.281 203.656 198.344 203.406C198.781 202.969 199.094 202.781 199.281 202.844C199.469 202.844 199.719 202.844 200.031 202.844C200.531 202.719 200.938 202.625 201.25 202.562C201.625 202.5 202.094 202.531 202.656 202.656C203.219 202.531 203.656 202.531 203.969 202.656C204.281 202.719 204.625 202.781 205 202.844C205.25 202.781 205.469 202.688 205.656 202.562C205.844 202.438 206.031 202.344 206.219 202.281C206.406 202.406 206.656 202.438 206.969 202.375C207.281 202.25 207.5 202.312 207.625 202.562C207.938 203 208.156 203.281 208.281 203.406C208.406 203.469 208.469 203.562 208.469 203.688C208.594 204.188 208.594 204.906 208.469 205.844C208.406 206.719 208.344 207.5 208.281 208.188C208.344 208.5 208.375 208.812 208.375 209.125C208.375 209.375 208.375 209.656 208.375 209.969C208.375 210.156 208.344 210.406 208.281 210.719C208.219 211.031 208.188 211.25 208.188 211.375C208.375 211.938 208.438 212.375 208.375 212.688C208.375 212.938 208.406 213.125 208.469 213.25C208.531 213.688 208.625 214.094 208.75 214.469C208.875 214.781 208.719 215.156 208.281 215.594C208.406 215.969 208.438 216.344 208.375 216.719C208.312 217.031 208.25 217.406 208.188 217.844C208.188 218.031 208.188 218.25 208.188 218.5C208.25 218.75 208.281 218.969 208.281 219.156C208.281 219.469 208.219 219.75 208.094 220C207.969 220.25 207.969 220.531 208.094 220.844C208.594 220.906 209.031 220.812 209.406 220.562C209.781 220.312 210.156 220.125 210.531 220C210.906 219.875 211.281 219.844 211.656 219.906C212.094 219.906 212.5 219.75 212.875 219.438C213.188 219.688 213.531 219.688 213.906 219.438C214.281 219.188 214.594 219.25 214.844 219.625C215.156 219.25 215.688 218.969 216.438 218.781C217.188 218.594 217.812 218.594 218.312 218.781C218.562 219.281 218.75 219.625 218.875 219.812C219 219.938 219.094 220.062 219.156 220.188C219.219 220.312 219.219 220.5 219.156 220.75C219.094 220.938 219.094 221.156 219.156 221.406C219.281 221.906 219.312 222.25 219.25 222.438C219.25 222.562 219.25 222.688 219.25 222.812C219.312 223.25 219.406 223.656 219.531 224.031C219.656 224.406 219.75 224.75 219.812 225.062L219.906 225.719ZM280.375 223.188C280.375 223.5 280.312 223.875 280.188 224.312C280.062 224.688 280 225.062 280 225.438C280 225.75 280 226.094 280 226.469C280.062 226.844 280.094 227.188 280.094 227.5C280.094 228.062 280.031 228.688 279.906 229.375C279.781 230.062 279.688 230.812 279.625 231.625C279.562 232.25 279.531 232.844 279.531 233.406C279.594 233.906 279.5 234.469 279.25 235.094C279.375 235.594 279.406 236.188 279.344 236.875C279.344 237.562 279.312 238.344 279.25 239.219C279.25 239.469 279.281 239.719 279.344 239.969C279.406 240.156 279.438 240.375 279.438 240.625C279.312 241 279.281 241.281 279.344 241.469C279.406 241.594 279.406 241.719 279.344 241.844C279.344 242.219 279.281 242.562 279.156 242.875C279.031 243.125 278.938 243.406 278.875 243.719C278.812 243.969 278.781 244.219 278.781 244.469C278.844 244.719 278.875 244.969 278.875 245.219C278.812 245.469 278.75 245.719 278.688 245.969C278.625 246.219 278.562 246.5 278.5 246.812C278.375 247.562 278.281 248.375 278.219 249.25C278.156 250.125 278.031 250.969 277.844 251.781C277.531 252.406 277.344 252.938 277.281 253.375C277.219 253.812 277.125 254.25 277 254.688C276.875 255.062 276.75 255.406 276.625 255.719C276.562 256.031 276.469 256.406 276.344 256.844C276.219 257.156 276.062 257.688 275.875 258.438C275.688 259.125 275.531 259.719 275.406 260.219C275.344 260.406 275.281 260.594 275.219 260.781C275.156 260.969 275.062 261.188 274.938 261.438C274.812 261.75 274.688 262.031 274.562 262.281C274.5 262.531 274.406 262.781 274.281 263.031C274.031 263.406 273.906 263.656 273.906 263.781C273.906 263.906 273.875 264 273.812 264.062C273.5 264.375 273.312 264.562 273.25 264.625C273.188 264.625 273.125 264.688 273.062 264.812C272.812 265.125 272.562 265.5 272.312 265.938C272.125 266.312 271.875 266.719 271.562 267.156C271.125 267.594 270.875 267.938 270.812 268.188C270.562 268.5 270.25 268.875 269.875 269.312C269.5 269.688 269.125 270.031 268.75 270.344C268.562 270.594 268.312 270.812 268 271C267.75 271.125 267.5 271.281 267.25 271.469C266.75 271.969 266.375 272.344 266.125 272.594C265.875 272.906 265.625 273.125 265.375 273.25C264.75 273.625 264.031 273.781 263.219 273.719C262.719 274.344 262 274.75 261.062 274.938C260.188 275.125 259.281 275.312 258.344 275.5C257.906 275.312 257.562 275 257.312 274.562C257 274.625 256.781 274.719 256.656 274.844C256.531 275.031 256.312 275.125 256 275.125C255.688 275.125 255.406 275.062 255.156 274.938C254.969 274.875 254.75 274.844 254.5 274.844C254.125 275.031 253.719 275.094 253.281 275.031C252.844 275.031 252.281 274.969 251.594 274.844C251.281 274.844 250.969 274.844 250.656 274.844C250.406 274.844 250.156 274.781 249.906 274.656C248.406 274.031 247.312 273.781 246.625 273.906C246.438 273.594 246.156 273.406 245.781 273.344C245.469 273.281 245.156 273.156 244.844 272.969C244.406 272.594 244.062 272.344 243.812 272.219C243.562 272.094 243.469 271.938 243.531 271.75C243.094 271.438 242.75 271.25 242.5 271.188C242.312 271.125 242.281 270.938 242.406 270.625C242.094 270.625 241.875 270.625 241.75 270.625C241.688 270.562 241.5 270.438 241.188 270.25C241 270.125 240.844 269.969 240.719 269.781C240.656 269.594 240.469 269.531 240.156 269.594C240.031 269.344 239.844 269.188 239.594 269.125C239.406 269.062 239.312 268.875 239.312 268.562C239 268.562 238.75 268.469 238.562 268.281C238.438 268.094 238.25 267.969 238 267.906C237.75 267.406 237.375 266.969 236.875 266.594C236.438 266.219 235.969 265.844 235.469 265.469C235.281 265.344 235.062 265.219 234.812 265.094C234.625 264.906 234.469 264.719 234.344 264.531C234.156 264.344 233.969 264.094 233.781 263.781C233.656 263.469 233.5 263.156 233.312 262.844C232.875 262.344 232.625 262.031 232.562 261.906C232.5 261.719 232.406 261.562 232.281 261.438C231.781 261.125 231.5 260.906 231.438 260.781C231.375 260.656 231.312 260.562 231.25 260.5C231.125 260.312 230.938 260.062 230.688 259.75C230.5 259.375 230.406 259 230.406 258.625C230.281 258.438 230.156 258.281 230.031 258.156C229.906 257.969 229.781 257.781 229.656 257.594C229.781 257.281 229.75 257.031 229.562 256.844C229.438 256.656 229.344 256.406 229.281 256.094C229.156 255.594 229.094 255.062 229.094 254.5C229.094 253.875 229.031 253.312 228.906 252.812C228.719 252.188 228.469 251.688 228.156 251.312C228.219 250.625 228.156 250.188 227.969 250C227.844 249.812 227.719 249.656 227.594 249.531C227.656 248.594 227.5 247.875 227.125 247.375C227.375 246.688 227.344 246.031 227.031 245.406C226.719 244.781 226.656 244.156 226.844 243.531C226.969 243.281 227 243.062 226.938 242.875C226.938 242.688 226.938 242.406 226.938 242.031C226.875 241.531 226.938 240.875 227.125 240.062C227.188 239.875 227.125 239.688 226.938 239.5C226.812 239.25 226.719 239 226.656 238.75C226.594 238.438 226.625 238.031 226.75 237.531C226.938 236.969 227.031 236.469 227.031 236.031C227.031 235.781 227 235.562 226.938 235.375C226.875 235.188 226.875 235 226.938 234.812C226.938 234.562 227 234.375 227.125 234.25C227.25 234.062 227.344 233.875 227.406 233.688C227.281 233 227.219 232.375 227.219 231.812C227.281 231.188 227.25 230.531 227.125 229.844C227.562 229.281 227.719 228.938 227.594 228.812C227.531 228.625 227.5 228.406 227.5 228.156C227.938 227.406 228.25 226.625 228.438 225.812C228.438 225.562 228.406 225.344 228.344 225.156C228.344 224.906 228.375 224.688 228.438 224.5C228.625 223.812 228.688 223.344 228.625 223.094C228.625 222.781 228.688 222.469 228.812 222.156C228.938 221.531 229.125 221.125 229.375 220.938C229.25 220.5 229.125 220.031 229 219.531C228.938 218.969 229.031 218.438 229.281 217.938C229.594 217.75 229.938 217.656 230.312 217.656C230.75 217.594 231.125 217.469 231.438 217.281C231.562 217.406 231.781 217.469 232.094 217.469C232.406 217.406 232.562 217.5 232.562 217.75C233.25 217.625 233.719 217.531 233.969 217.469C234.219 217.344 234.469 217.281 234.719 217.281C235.406 217.281 236.062 217.312 236.688 217.375C237.312 217.375 237.906 217.344 238.469 217.281C238.844 217.969 239.062 218.5 239.125 218.875C239.25 219.25 239.344 219.75 239.406 220.375C239.531 221.375 239.562 222.438 239.5 223.562C239.5 224.688 239.469 225.844 239.406 227.031C239.406 227.281 239.438 227.531 239.5 227.781C239.562 227.969 239.594 228.188 239.594 228.438C239.531 228.812 239.469 229.188 239.406 229.562C239.406 229.938 239.406 230.344 239.406 230.781C239.281 231.281 239.219 231.688 239.219 232C239.406 232.875 239.5 233.656 239.5 234.344C239.562 235.031 239.594 235.5 239.594 235.75C239.469 236.25 239.469 236.75 239.594 237.25C239.781 237.688 239.75 238.156 239.5 238.656C240 239.344 240.25 240.156 240.25 241.094C240.25 242.031 240.281 243.031 240.344 244.094C240.406 244.531 240.5 244.969 240.625 245.406C240.75 245.781 240.812 246.25 240.812 246.812C240.688 247.312 240.656 247.688 240.719 247.938C240.844 248.188 240.906 248.406 240.906 248.594C240.906 249.281 240.875 249.969 240.812 250.656C240.75 251.344 240.812 252 241 252.625C241.062 252.875 241.125 253.125 241.188 253.375C241.312 253.625 241.438 253.875 241.562 254.125C241.688 254.438 241.781 254.75 241.844 255.062C241.906 255.375 242 255.594 242.125 255.719C242.25 255.906 242.375 256.062 242.5 256.188C242.625 256.312 242.75 256.438 242.875 256.562C243.375 257.188 243.75 257.656 244 257.969C244.312 258.281 244.656 258.5 245.031 258.625C245.031 258.875 245.062 259.094 245.125 259.281C245.25 259.406 245.344 259.562 245.406 259.75C245.656 259.75 245.875 259.781 246.062 259.844C246.312 259.906 246.594 259.969 246.906 260.031C247.031 260.281 247.219 260.469 247.469 260.594C247.719 260.719 247.906 260.906 248.031 261.156C248.656 261.156 249.156 261.344 249.531 261.719C249.906 261.594 250.281 261.625 250.656 261.812C251.031 262 251.5 262.094 252.062 262.094C252.25 262.094 252.5 262.062 252.812 262C253.125 261.875 253.375 261.812 253.562 261.812C254.562 261.688 255.5 261.562 256.375 261.438C257.25 261.312 257.938 261.094 258.438 260.781C258.688 260.469 258.875 260.281 259 260.219C259.188 260.094 259.344 259.969 259.469 259.844C259.844 259.344 260.156 258.906 260.406 258.531C260.719 258.156 261 257.812 261.25 257.5C261.5 257.312 261.781 256.969 262.094 256.469C262.219 256.219 262.344 255.969 262.469 255.719C262.656 255.406 262.875 255.156 263.125 254.969C263.188 254.281 263.312 253.75 263.5 253.375C263.75 252.938 264.031 252.5 264.344 252.062C264.344 251.688 264.344 251.344 264.344 251.031C264.406 250.719 264.562 250.469 264.812 250.281C264.688 250.031 264.688 249.812 264.812 249.625C264.938 249.438 264.969 249.156 264.906 248.781C264.969 248.594 265.062 248.438 265.188 248.312C265.312 248.188 265.438 248 265.562 247.75C265.625 247.625 265.625 247.469 265.562 247.281C265.562 247.031 265.656 246.844 265.844 246.719C265.531 246.031 265.406 245.219 265.469 244.281C265.594 243.344 265.75 242.438 265.938 241.562C266 241.25 266.094 241 266.219 240.812C266.344 240.562 266.406 240.312 266.406 240.062C266.406 239.375 266.438 238.906 266.5 238.656C266.562 238.344 266.625 238.062 266.688 237.812C266.688 237.5 266.656 237.219 266.594 236.969C266.531 236.719 266.5 236.438 266.5 236.125C266.5 235.938 266.531 235.75 266.594 235.562C266.656 235.312 266.688 235.062 266.688 234.812C266.688 234.438 266.656 234.094 266.594 233.781C266.531 233.469 266.469 233.156 266.406 232.844C266.406 232.594 266.438 232.375 266.5 232.188C266.562 231.938 266.594 231.656 266.594 231.344C266.656 231.031 266.656 230.719 266.594 230.406C266.531 230.031 266.5 229.656 266.5 229.281C266.5 229.031 266.531 228.812 266.594 228.625C266.656 228.375 266.688 228.094 266.688 227.781C266.688 227.594 266.656 227.406 266.594 227.219C266.594 226.969 266.594 226.75 266.594 226.562C266.594 226.25 266.656 225.938 266.781 225.625C266.906 225.312 266.906 225 266.781 224.688C266.531 224.375 266.438 224.156 266.5 224.031C266.562 223.906 266.562 223.781 266.5 223.656C266.375 223.406 266.281 223.188 266.219 223C266.156 222.812 266.094 222.656 266.031 222.531C265.969 222.344 265.938 222.219 265.938 222.156C266 221.656 266 221.312 265.938 221.125C265.875 220.875 265.844 220.656 265.844 220.469C265.844 219.906 265.875 219.562 265.938 219.438C266 219.25 266.062 219.094 266.125 218.969C266.375 218.594 266.719 218.344 267.156 218.219C267.594 218.031 268.062 217.906 268.562 217.844C269.062 217.781 269.594 217.75 270.156 217.75C270.719 217.75 271.25 217.719 271.75 217.656C272.438 217.469 272.906 217.406 273.156 217.469C273.469 217.469 273.719 217.438 273.906 217.375C274.281 217.312 274.656 217.219 275.031 217.094C275.469 216.969 275.938 217.094 276.438 217.469C276.938 217.094 277.469 216.938 278.031 217C278.656 217 279.125 217.219 279.438 217.656C279.625 217.906 279.719 218.125 279.719 218.312C279.781 218.5 279.875 218.812 280 219.25C280.062 219.562 280.094 219.812 280.094 220C280.156 220.125 280.156 220.406 280.094 220.844C280.031 221.156 280.062 221.531 280.188 221.969C280.312 222.406 280.375 222.812 280.375 223.188ZM344.688 220.75C344.688 220.938 344.594 221.188 344.406 221.5C344.281 221.812 344.219 222.094 344.219 222.344C344.281 222.781 344.281 223.062 344.219 223.188C344.219 223.312 344.219 223.438 344.219 223.562C344.281 223.875 344.281 224.094 344.219 224.219C344.156 224.344 344.156 224.469 344.219 224.594C344.281 224.969 344.25 225.25 344.125 225.438C344.062 225.625 344.031 225.781 344.031 225.906C343.969 226.094 343.969 226.312 344.031 226.562C344.094 226.75 344.125 226.938 344.125 227.125C344 227.625 343.906 228.031 343.844 228.344C343.844 228.594 343.812 228.781 343.75 228.906C343.75 229.219 343.719 229.562 343.656 229.938C343.656 230.312 343.688 230.719 343.75 231.156C343.75 231.281 343.781 231.438 343.844 231.625C343.969 231.812 344.031 232 344.031 232.188C344.094 232.875 344.062 233.594 343.938 234.344C343.875 235.094 343.875 235.812 343.938 236.5C343.938 236.812 343.969 237.094 344.031 237.344C344.094 237.594 344.094 237.875 344.031 238.188C344.031 238.625 343.969 239.031 343.844 239.406C343.719 239.781 343.625 240.219 343.562 240.719C343.625 241.094 343.625 241.531 343.562 242.031C343.5 242.469 343.562 242.844 343.75 243.156C343.625 243.594 343.469 243.969 343.281 244.281C343.406 245.156 343.375 246 343.188 246.812C343.062 247.625 343 248.469 343 249.344C343.062 249.656 343.125 249.969 343.188 250.281C343.25 250.531 343.281 250.812 343.281 251.125C343.281 251.25 343.25 251.406 343.188 251.594C343.125 251.781 343.094 251.969 343.094 252.156C343.219 252.719 343.219 253.125 343.094 253.375C343.031 253.625 342.969 253.812 342.906 253.938C342.844 254.625 342.812 255.188 342.812 255.625C342.812 256 342.656 256.438 342.344 256.938C342.156 257.25 342.125 257.75 342.25 258.438C342.375 259.062 342.281 259.594 341.969 260.031C342.094 260.406 342.125 260.75 342.062 261.062C342.062 261.375 342.062 261.781 342.062 262.281C342.125 263.156 342.094 263.781 341.969 264.156C341.906 264.469 341.875 264.781 341.875 265.094C341.812 265.844 341.844 266.562 341.969 267.25C342.094 267.875 342.188 268.5 342.25 269.125C342 269.75 342.062 270.281 342.438 270.719C342.812 271.156 343 271.625 343 272.125C342.875 272.438 342.781 272.688 342.719 272.875C342.656 273.125 342.625 273.281 342.625 273.344C342.312 273.469 342.031 273.594 341.781 273.719C341.531 273.906 341.281 274.031 341.031 274.094C340.844 274.094 340.656 274.062 340.469 274C340.281 273.938 340.062 273.906 339.812 273.906C339.562 273.844 339.25 273.844 338.875 273.906C338.562 274.031 338.25 274.094 337.938 274.094C337.625 274.156 337.25 274.156 336.812 274.094C336.438 274.094 336.094 274.156 335.781 274.281C335.406 274.344 335.031 274.469 334.656 274.656C334.344 274.844 334.031 274.938 333.719 274.938C333.281 275.375 332.906 275.562 332.594 275.5C332.281 275.5 332.062 275.531 331.938 275.594C331.562 275.281 331.25 274.781 331 274.094C330.75 273.406 330.812 272.875 331.188 272.5C330.875 271.688 330.812 270.781 331 269.781C331.188 268.781 331.188 267.781 331 266.781C330.5 266.969 330.031 267.219 329.594 267.531C329.219 267.844 328.844 268.188 328.469 268.562C328.281 268.688 328.125 268.875 328 269.125C327.875 269.312 327.688 269.469 327.438 269.594C327.188 269.719 326.906 269.844 326.594 269.969C326.281 270.094 326.062 270.25 325.938 270.438C325.625 270.562 325.281 270.625 324.906 270.625C324.594 270.625 324.281 270.688 323.969 270.812C323.531 270.938 323.094 271.062 322.656 271.188C322.219 271.25 321.719 271.344 321.156 271.469C320.781 271.594 320.281 271.75 319.656 271.938C319.031 272.125 318.375 272.156 317.688 272.031C317.188 271.906 316.844 271.906 316.656 272.031C316.531 272.094 316.375 272.125 316.188 272.125C315.688 272.25 315.156 272.188 314.594 271.938C314.469 272.188 314.156 272.25 313.656 272.125C313.219 272 312.875 271.875 312.625 271.75C312.125 271.938 311.656 271.969 311.219 271.844C310.781 271.719 310.312 271.625 309.812 271.562C309.5 271.562 309.312 271.469 309.25 271.281C309.25 271.094 309.125 270.969 308.875 270.906C307.5 270.969 306.031 270.812 304.469 270.438C304.344 270.188 304.156 270 303.906 269.875C303.719 269.75 303.594 269.531 303.531 269.219C303.219 269.281 303 269.219 302.875 269.031C302.812 268.844 302.625 268.75 302.312 268.75C302.188 268.438 302 268.219 301.75 268.094C301.562 267.906 301.406 267.719 301.281 267.531C300.969 267.531 300.719 267.469 300.531 267.344C300.406 267.219 300.188 267.156 299.875 267.156C299.5 266.656 299.281 266.375 299.219 266.312C299.156 266.25 299.094 266.188 299.031 266.125C298.719 265.875 298.469 265.75 298.281 265.75C298.156 265.75 298.062 265.719 298 265.656C297.688 265.344 297.438 265.094 297.25 264.906C297.062 264.719 296.875 264.5 296.688 264.25C296.312 263.75 296 263.438 295.75 263.312C295.5 263.125 295.406 262.812 295.469 262.375C294.906 262 294.531 261.75 294.344 261.625C294.219 261.438 294.094 261.25 293.969 261.062C293.719 260.75 293.562 260.438 293.5 260.125C293.438 259.812 293.281 259.594 293.031 259.469C292.594 258.781 292.25 258.25 292 257.875C291.75 257.438 291.406 257.156 290.969 257.031C291.094 256.719 291.094 256.531 290.969 256.469C290.844 256.406 290.812 256.25 290.875 256C290.375 255.562 290 255.031 289.75 254.406C289.5 253.781 289.281 253.125 289.094 252.438C288.906 251.688 288.75 250.969 288.625 250.281C288.5 249.531 288.312 248.812 288.062 248.125C288.125 247.25 288.156 246.344 288.156 245.406C288.156 244.406 288.312 243.531 288.625 242.781C288.812 242.344 288.906 241.969 288.906 241.656C288.906 241.344 288.938 241.031 289 240.719C289.062 240.406 289.094 240.125 289.094 239.875C289.156 239.562 289.219 239.25 289.281 238.938C289.469 237.938 289.625 237.188 289.75 236.688C289.938 236.188 290.188 235.75 290.5 235.375C290.375 234.938 290.375 234.562 290.5 234.25C290.625 233.875 290.781 233.562 290.969 233.312C291.156 233 291.344 232.688 291.531 232.375C291.719 232.062 291.812 231.719 291.812 231.344C292.125 231.094 292.344 230.812 292.469 230.5C292.656 230.125 292.875 229.781 293.125 229.469C293.25 229.219 293.406 228.938 293.594 228.625C293.781 228.312 293.969 228 294.156 227.688C294.281 227.5 294.438 227.312 294.625 227.125C294.875 226.938 294.969 226.688 294.906 226.375C295.094 226.25 295.25 226.125 295.375 226C295.5 225.875 295.719 225.75 296.031 225.625C296.531 224.875 296.938 224.219 297.25 223.656C297.562 223.031 297.938 222.469 298.375 221.969C298.625 221.719 298.844 221.531 299.031 221.406C299.281 221.219 299.531 221.031 299.781 220.844C299.906 220.531 300.125 220.344 300.438 220.281C300.812 220.156 301.031 219.938 301.094 219.625C301.719 219.5 302.344 219.375 302.969 219.25C303.594 219.062 304.156 218.781 304.656 218.406C305.031 218.344 305.406 218.312 305.781 218.312C306.219 218.25 306.594 218.094 306.906 217.844C307.531 217.969 308.031 217.938 308.406 217.75C308.781 217.5 309.125 217.25 309.438 217C310.438 217 311.375 217 312.25 217C313.188 216.938 314.188 216.938 315.25 217C315.75 217 316.219 216.969 316.656 216.906C317.156 216.844 317.594 216.844 317.969 216.906C318.281 216.906 318.562 216.906 318.812 216.906C319.062 216.906 319.281 217 319.469 217.188C320.031 216.938 320.562 216.969 321.062 217.281C321.188 217.344 321.344 217.375 321.531 217.375C321.719 217.312 321.969 217.344 322.281 217.469C322.906 217.656 323.312 217.75 323.5 217.75C323.75 217.75 323.938 217.75 324.062 217.75C324.562 218 324.875 218.156 325 218.219C325.125 218.281 325.344 218.438 325.656 218.688C326.469 219.188 327.094 219.562 327.531 219.812C328.031 220 328.5 220.25 328.938 220.562C329.25 220.938 329.469 221.156 329.594 221.219C329.719 221.281 329.844 221.375 329.969 221.5C330.094 221.625 330.219 221.781 330.344 221.969C330.469 222.094 330.625 222.25 330.812 222.438C330.938 222.688 331.125 222.906 331.375 223.094C331.625 223.281 331.875 223.5 332.125 223.75C332.25 223.875 332.344 224.031 332.406 224.219C332.531 224.406 332.688 224.562 332.875 224.688C333 224.812 333.188 225 333.438 225.25C333.75 225.438 333.906 225.688 333.906 226C334.156 225.125 334.219 224.219 334.094 223.281C333.969 222.281 333.781 221.438 333.531 220.75C333.344 220.375 333.156 220.094 332.969 219.906C332.781 219.656 332.781 219.25 332.969 218.688C333.031 218.438 333.156 218.156 333.344 217.844C333.594 217.531 333.781 217.312 333.906 217.188C333.906 217.25 334.125 217.312 334.562 217.375C335 217.375 335.375 217.375 335.688 217.375C336 217.438 336.25 217.5 336.438 217.562C336.688 217.562 336.938 217.562 337.188 217.562C337.875 217.562 338.719 217.594 339.719 217.656C340.719 217.719 341.562 217.875 342.25 218.125C342.75 218 343.156 218.031 343.469 218.219C343.781 218.344 344.125 218.469 344.5 218.594C344.562 218.844 344.562 219.062 344.5 219.25C344.5 219.375 344.531 219.562 344.594 219.812L344.688 220.75ZM331.094 243.25C330.969 243.062 330.875 242.812 330.812 242.5C330.812 242.125 330.812 241.781 330.812 241.469C330.688 241.281 330.531 241.156 330.344 241.094C330.219 240.969 330.094 240.844 329.969 240.719C329.969 240.219 329.875 239.812 329.688 239.5C329.562 239.188 329.469 238.875 329.406 238.562C329.531 238.062 329.5 237.719 329.312 237.531C329.188 237.281 329.094 237.031 329.031 236.781C328.906 236.469 328.844 236.156 328.844 235.844C328.844 235.469 328.812 235.094 328.75 234.719C328.438 234.531 328.25 234.344 328.188 234.156C328.125 233.969 328.031 233.812 327.906 233.688C327.406 233.188 327.031 232.812 326.781 232.562C326.531 232.312 326.281 232.062 326.031 231.812C325.469 231.25 324.875 230.844 324.25 230.594C323.75 230.281 323.281 230.031 322.844 229.844C322.406 229.594 322 229.375 321.625 229.188C321.25 229 320.875 228.906 320.5 228.906C320.125 228.906 319.688 228.844 319.188 228.719C318.875 228.594 318.625 228.5 318.438 228.438C318.25 228.312 318.062 228.219 317.875 228.156C317.75 228.156 317.562 228.188 317.312 228.25C317.062 228.25 316.812 228.219 316.562 228.156C316.375 228.156 316.156 228.125 315.906 228.062C315.719 227.938 315.562 227.875 315.438 227.875C314.812 228 314.344 228 314.031 227.875C313.719 227.688 313.5 227.656 313.375 227.781C312.75 227.844 312.312 227.969 312.062 228.156C311.875 228.344 311.562 228.562 311.125 228.812C310.562 229.062 310.188 229.25 310 229.375C309.875 229.438 309.75 229.5 309.625 229.562C309 229.875 308.562 230.125 308.312 230.312C308.062 230.5 307.844 230.656 307.656 230.781C307.219 230.969 306.969 231.125 306.906 231.25C306.844 231.312 306.75 231.344 306.625 231.344C306.5 231.531 306.375 231.688 306.25 231.812C306.125 231.938 306 232.094 305.875 232.281C305.5 232.594 305.188 232.875 304.938 233.125C304.688 233.312 304.5 233.469 304.375 233.594C304 233.969 303.562 234.25 303.062 234.438C303 235.125 302.781 235.656 302.406 236.031C302.031 236.344 301.844 236.844 301.844 237.531C301.594 237.844 301.406 238.156 301.281 238.469C301.156 238.719 301.031 239 300.906 239.312C300.781 239.688 300.688 240.094 300.625 240.531C300.625 240.906 300.562 241.344 300.438 241.844C300.312 242.219 300.188 242.531 300.062 242.781C299.938 243.031 299.844 243.312 299.781 243.625C299.906 244.5 299.875 245.156 299.688 245.594C299.562 245.969 299.469 246.406 299.406 246.906C299.406 247.156 299.438 247.406 299.5 247.656C299.625 247.906 299.688 248.188 299.688 248.5C299.688 249 299.656 249.375 299.594 249.625C299.531 249.812 299.5 249.969 299.5 250.094C299.562 250.531 299.688 250.938 299.875 251.312C300.125 251.688 300.188 252.125 300.062 252.625C300.5 252.938 300.906 253.25 301.281 253.562C301.656 253.875 302.094 254.156 302.594 254.406C303.031 255.156 303.562 255.781 304.188 256.281C304.812 256.781 305.406 257.281 305.969 257.781C306.531 258.406 307.156 258.844 307.844 259.094C308.406 259.406 308.844 259.625 309.156 259.75C309.531 259.812 309.875 259.875 310.188 259.938C310.375 260 310.594 260.094 310.844 260.219C311.156 260.281 311.375 260.344 311.5 260.406C312.562 260.531 313.531 260.719 314.406 260.969C315.281 261.156 316.062 261.25 316.75 261.25C316.938 261.312 317.156 261.344 317.406 261.344C317.656 261.281 317.875 261.219 318.062 261.156C318.312 261.156 318.562 261.156 318.812 261.156C319.125 261.156 319.375 261.125 319.562 261.062C320.062 260.812 320.375 260.688 320.5 260.688C320.625 260.688 320.75 260.656 320.875 260.594C321.062 260.531 321.281 260.438 321.531 260.312C321.781 260.188 322.031 260.25 322.281 260.5C322.469 260.125 322.719 259.812 323.031 259.562C323.406 259.312 323.75 259.094 324.062 258.906C324.375 258.656 324.656 258.375 324.906 258.062C325.219 257.75 325.406 257.344 325.469 256.844C325.781 256.344 326.062 256 326.312 255.812C326.562 255.562 326.781 255.312 326.969 255.062C327.094 254.875 327.188 254.656 327.25 254.406C327.375 254.094 327.5 253.875 327.625 253.75C327.938 253.25 328.156 252.844 328.281 252.531C328.469 252.156 328.719 251.812 329.031 251.5C328.906 251.188 328.906 250.906 329.031 250.656C329.219 250.344 329.375 250.062 329.5 249.812C329.812 248.938 330.031 248.125 330.156 247.375C330.281 246.562 330.344 245.625 330.344 244.562C330.656 244.125 330.906 243.688 331.094 243.25ZM372.906 274.656C372.906 275.281 372.562 275.531 371.875 275.406C371.75 275.531 371.719 275.719 371.781 275.969C371.844 276.281 371.719 276.5 371.406 276.625C370.906 276.812 370.344 276.844 369.719 276.719C369.156 276.594 368.719 276.406 368.406 276.156C366.906 275.844 365.344 275.781 363.719 275.969C362.094 276.219 360.5 276.25 358.938 276.062C358.5 275.625 358.281 275.469 358.281 275.594C358.344 275.781 358.219 275.844 357.906 275.781C357.531 275.469 357.312 275.125 357.25 274.75C357.188 274.375 357.156 273.969 357.156 273.531V271.844C357.219 271.344 357.25 270.875 357.25 270.438C357.25 269.938 357.25 269.406 357.25 268.844C357.25 267.781 357.188 266.531 357.062 265.094C356.938 263.656 357.156 262.438 357.719 261.438C357.406 261.062 357.312 260.594 357.438 260.031C357.625 259.469 357.75 258.906 357.812 258.344C357.812 258.031 357.75 257.688 357.625 257.312C357.562 256.875 357.688 256.5 358 256.188C357.688 255.875 357.562 255.5 357.625 255.062C357.75 254.625 357.844 254.156 357.906 253.656C357.906 253.406 357.875 253.188 357.812 253C357.75 252.75 357.844 252.531 358.094 252.344C358.031 251.844 357.906 251.375 357.719 250.938C357.594 250.5 357.594 249.938 357.719 249.25C357.719 249.062 357.719 248.906 357.719 248.781C357.781 248.594 357.781 248.344 357.719 248.031C357.594 247.594 357.531 247.281 357.531 247.094C357.594 246.906 357.625 246.75 357.625 246.625C357.625 246.312 357.594 246 357.531 245.688C357.469 245.375 357.438 245 357.438 244.562C357.562 244.062 357.625 243.719 357.625 243.531C357.625 243.219 357.562 242.938 357.438 242.688C357.375 242.375 357.312 242.062 357.25 241.75C357.312 240.75 357.281 239.938 357.156 239.312C357.094 238.688 357 238 356.875 237.25C356.812 236.812 356.75 236.312 356.688 235.75C356.625 235.125 356.625 234.5 356.688 233.875C356.75 233.188 356.719 232.688 356.594 232.375C356.531 232 356.469 231.625 356.406 231.25C356.344 230.938 356.312 230.625 356.312 230.312C356.312 230 356.312 229.688 356.312 229.375C356.188 228.812 356.156 228.438 356.219 228.25C356.281 228 356.312 227.812 356.312 227.688C356.312 227.375 356.25 227 356.125 226.562C356.062 226.125 356 225.656 355.938 225.156C355.812 224.531 355.75 223.875 355.75 223.188C355.75 222.5 355.75 221.812 355.75 221.125C355.688 220.875 355.656 220.656 355.656 220.469C355.656 220.219 355.625 220 355.562 219.812C355.688 219.438 355.688 219.188 355.562 219.062C355.438 218.938 355.375 218.812 355.375 218.688C355.5 218.25 355.531 217.969 355.469 217.844C355.406 217.656 355.375 217.5 355.375 217.375C355.5 216.75 355.5 216.312 355.375 216.062C355.312 215.812 355.281 215.594 355.281 215.406C355.281 215.031 355.312 214.656 355.375 214.281C355.438 213.844 355.375 213.438 355.188 213.062C355.562 212.812 355.688 212.5 355.562 212.125C355.438 211.688 355.375 211.312 355.375 211C355.375 210.625 355.469 210.281 355.656 209.969C355.844 209.594 355.844 209.25 355.656 208.938C355.844 208.812 355.969 208.625 356.031 208.375C356.094 208.125 356.188 207.906 356.312 207.719C356.188 207.219 356.25 206.625 356.5 205.938C356.75 205.188 356.969 204.5 357.156 203.875C357.219 203.562 357.156 203.375 356.969 203.312C356.844 203.188 356.719 203.062 356.594 202.938C356.719 202.438 356.844 201.938 356.969 201.438C357.094 200.938 357.375 200.594 357.812 200.406C359.062 200.594 360.219 200.719 361.281 200.781C362.344 200.781 363.406 200.812 364.469 200.875C364.781 200.75 365.031 200.625 365.219 200.5C365.469 200.312 365.75 200.188 366.062 200.125C366.375 200.125 366.781 200.281 367.281 200.594C367.781 200.844 368.188 201.031 368.5 201.156C368.688 201.406 368.812 201.719 368.875 202.094C369 202.406 369.125 202.719 369.25 203.031C369.25 203.344 369.125 203.531 368.875 203.594C368.625 203.594 368.438 203.719 368.312 203.969V205.188C368.188 205.875 368.188 206.375 368.312 206.688C368.438 206.938 368.5 207.156 368.5 207.344C368.562 207.781 368.531 208.188 368.406 208.562C368.344 208.938 368.312 209.344 368.312 209.781C368.312 209.969 368.344 210.188 368.406 210.438C368.469 210.625 368.531 210.844 368.594 211.094C368.531 211.281 368.531 211.469 368.594 211.656C368.656 211.844 368.719 212 368.781 212.125C368.781 212.75 368.719 213.375 368.594 214C368.531 214.562 368.5 215.125 368.5 215.688C368.625 216.312 368.625 216.75 368.5 217C368.438 217.25 368.438 217.438 368.5 217.562C368.688 218.25 368.812 218.719 368.875 218.969C369 219.156 369.062 219.312 369.062 219.438C369 220.125 369 220.688 369.062 221.125C369.125 221.5 369.188 221.844 369.25 222.156C369.375 223.031 369.438 223.906 369.438 224.781C369.438 225.594 369.594 226.406 369.906 227.219C369.656 227.719 369.594 228.219 369.719 228.719C369.906 229.219 370 229.781 370 230.406C370 230.844 369.969 231.25 369.906 231.625C369.844 232 369.812 232.438 369.812 232.938C369.938 233.188 369.906 233.469 369.719 233.781C369.594 234.031 369.5 234.312 369.438 234.625C369.438 235.375 369.5 236.125 369.625 236.875C369.75 237.625 369.812 238.375 369.812 239.125C369.812 239.938 369.781 240.812 369.719 241.75C369.656 242.688 369.656 243.562 369.719 244.375C369.594 244.875 369.562 245.25 369.625 245.5C369.688 245.688 369.719 245.875 369.719 246.062C369.656 246.562 369.562 247 369.438 247.375C369.375 247.75 369.344 248.156 369.344 248.594C369.281 248.906 369.281 249.25 369.344 249.625C369.406 249.938 369.438 250.281 369.438 250.656C369.438 251.031 369.406 251.406 369.344 251.781C369.344 252.156 369.344 252.531 369.344 252.906C369.406 253.781 369.469 254.625 369.531 255.438C369.656 256.25 369.719 257.094 369.719 257.969C369.719 258.656 369.656 259.344 369.531 260.031C369.469 260.656 369.5 261.312 369.625 262C369.688 262.438 369.75 262.906 369.812 263.406C369.875 263.844 369.938 264.312 370 264.812C370.062 265.062 370.125 265.312 370.188 265.562C370.25 265.75 370.281 265.969 370.281 266.219C370.344 267.281 370.25 268.344 370 269.406C369.75 270.469 369.812 271.531 370.188 272.594C370.438 272.906 370.812 273.094 371.312 273.156C371.875 273.219 372.312 273.406 372.625 273.719L372.906 274.656Z" fill="#0AB395"/>
</svg>
