<svg width="32" height="32" viewBox="0 0 32 32" fill="none" xmlns="http://www.w3.org/2000/svg">
<path d="M16.0534 10.5653C12.2534 2.73667 7.60935 3.12 7.60935 3.12L6.24402 28.186C6.24402 28.186 9.56002 29 16.054 29C22.548 29 25.756 28.3773 25.756 28.3773L24.6547 3C24.6547 3 18.872 3.64667 16.0534 10.5653Z" fill="black" stroke="black" stroke-width="0.5" stroke-linecap="round" stroke-linejoin="round"/>
<path d="M16.0533 16C14.9095 15.9987 13.7796 16.2511 12.7451 16.7391C11.7105 17.227 10.7971 17.9384 10.0707 18.822C10.0032 18.9037 9.96631 19.0064 9.96631 19.1123C9.96631 19.2183 10.0032 19.321 10.0707 19.4027C11.4927 21.126 13.6447 22.2247 16.054 22.2247C18.4633 22.2247 20.6153 21.126 22.0373 19.4027C22.1048 19.321 22.1417 19.2183 22.1417 19.1123C22.1417 19.0064 22.1048 18.9037 22.0373 18.822C21.3108 17.9383 20.3971 17.2268 19.3624 16.7388C18.3276 16.2508 17.1974 15.9985 16.0533 16Z" fill="white" stroke="black" stroke-width="0.5" stroke-linecap="round" stroke-linejoin="round"/>
<path d="M15.1639 19.0647C15.1639 19.8314 15.3966 20.5427 15.7939 21.134C15.9153 21.314 16.1786 21.314 16.2993 21.134C16.6973 20.5427 16.9299 19.8307 16.9299 19.0647C16.9299 18.2987 16.6973 17.586 16.2999 16.9947C16.2722 16.953 16.2346 16.9189 16.1904 16.8952C16.1463 16.8716 16.097 16.8593 16.0469 16.8593C15.9969 16.8593 15.9476 16.8716 15.9035 16.8952C15.8593 16.9189 15.8217 16.953 15.7939 16.9947C15.3824 17.6065 15.163 18.3273 15.1639 19.0647Z" fill="black" stroke="black" stroke-width="0.5" stroke-linecap="round" stroke-linejoin="round"/>
</svg>
