<?xml version="1.0" encoding="UTF-8"?>
<svg id="Layer_1" xmlns="http://www.w3.org/2000/svg" version="1.1" viewBox="0 0 100 80">
  <!-- Generator: Adobe Illustrator 30.4.0, SVG Export Plug-In . SVG Version: 2.1.3 Build 80)  -->
  <defs>
    <style>
      .st0 {
        fill: #0e0e18;
      }
    </style>
  </defs>
  <path class="st0" d="M31.9,31c-1.7-2.2-4.8-2.7-7-1s-2.7,4.8-1,7l6,7.9c.8,1,.6,2.4-.2,3.3l-2,2c-1,1-2.7,1-3.7-.2l-14-16.8V10c0-2.8-2.2-5-5-5S0,7.2,0,10v34.1c0,1.7.6,3.4,1.6,4.7l16.3,21c.8,1,1.3,2.2,1.6,3.4.3,1.1,1.3,1.8,2.4,1.8h20.6c1.4,0,2.5-1.1,2.5-2.5v-17.5c0-4.3-1.4-8.5-4-12l-9-12h-.1ZM94.9,5c-2.8,0-5,2.2-5,5v23.2l-14,16.8c-.9,1.1-2.7,1.2-3.7.2l-2-2c-.9-.9-1-2.3-.2-3.3l6-7.9c1.7-2.2,1.2-5.3-1-7s-5.3-1.2-7,1l-9,12c-2.6,3.5-4,7.7-4,12v17.5c0,1.4,1.1,2.5,2.5,2.5h20.6c1.1,0,2.1-.7,2.4-1.8.3-1.2.8-2.4,1.6-3.4l16.3-21c1.1-1.3,1.6-3,1.6-4.7V10c0-2.8-2.2-5-5-5h-.1Z"/>
</svg>