<svg width="32" height="32" viewBox="0 0 32 32" fill="none" xmlns="http://www.w3.org/2000/svg">
<path fill-rule="evenodd" clip-rule="evenodd" d="M11.9493 24.6253C8.02529 21.6187 2.66663 16.652 2.66663 11.956C2.66663 4.11068 9.99996 1.18134 16 7.24001C22 1.18134 29.3333 4.11068 29.3333 11.956C29.3333 16.652 23.9733 21.6187 20.0506 24.6253C18.2746 25.9853 17.3866 26.6667 16 26.6667C14.6133 26.6667 13.7253 25.9867 11.9493 24.6253ZM22 8.33334C22.2652 8.33334 22.5195 8.4387 22.7071 8.62623C22.8946 8.81377 23 9.06812 23 9.33334V11H24.6666C24.9318 11 25.1862 11.1054 25.3737 11.2929C25.5613 11.4804 25.6666 11.7348 25.6666 12C25.6666 12.2652 25.5613 12.5196 25.3737 12.7071C25.1862 12.8947 24.9318 13 24.6666 13H23V14.6667C23 14.9319 22.8946 15.1862 22.7071 15.3738C22.5195 15.5613 22.2652 15.6667 22 15.6667C21.7347 15.6667 21.4804 15.5613 21.2929 15.3738C21.1053 15.1862 21 14.9319 21 14.6667V13H19.3333C19.0681 13 18.8137 12.8947 18.6262 12.7071C18.4386 12.5196 18.3333 12.2652 18.3333 12C18.3333 11.7348 18.4386 11.4804 18.6262 11.2929C18.8137 11.1054 19.0681 11 19.3333 11H21V9.33334C21 9.06812 21.1053 8.81377 21.2929 8.62623C21.4804 8.4387 21.7347 8.33334 22 8.33334Z" fill="black"/>
</svg>
