<svg width="100" height="100" viewBox="0 0 100 100" fill="none" xmlns="http://www.w3.org/2000/svg">
<g clip-path="url(#clip0_2085_66)">
<path d="M50 100C63.2608 100 75.9785 94.7322 85.3553 85.3553C94.7322 75.9785 100 63.2608 100 50C100 36.7392 94.7322 24.0215 85.3553 14.6447C75.9785 5.26784 63.2608 0 50 0C36.7392 0 24.0215 5.26784 14.6447 14.6447C5.26784 24.0215 0 36.7392 0 50C0 63.2608 5.26784 75.9785 14.6447 85.3553C24.0215 94.7322 36.7392 100 50 100ZM32.168 64.1992C36.4648 59.9023 42.6953 56.25 50 56.25C57.3047 56.25 63.5352 59.9023 67.832 64.1992C70 66.3672 71.7578 68.7695 72.9883 71.1133C74.1992 73.3984 75 75.8789 75 78.125C75 79.1406 74.4922 80.1172 73.6523 80.7031C72.8125 81.2891 71.7383 81.4258 70.7812 81.0547L66.7773 79.5508C61.5234 77.5781 55.9375 76.5625 50.3125 76.5625H49.6875C44.0625 76.5625 38.4961 77.5781 33.2227 79.5508L29.2188 81.0547C28.2617 81.4062 27.1875 81.2891 26.3477 80.7031C25.5078 80.1172 25 79.1602 25 78.125C25 75.8594 25.8203 73.3984 27.0117 71.1133C28.2422 68.7695 30 66.3672 32.168 64.1992ZM26.0742 28.6523L43.6328 38.0078C45.7227 39.1211 45.7227 42.1289 43.6328 43.2422L26.0742 52.5977C24.5312 53.418 22.6562 52.3047 22.6562 50.5469C22.6562 50 22.8516 49.4727 23.2031 49.0625L30.2344 40.625L23.2031 32.1875C22.8516 31.7773 22.6562 31.25 22.6562 30.7031C22.6562 28.9453 24.5312 27.832 26.0742 28.6523ZM77.3438 30.6836C77.3438 31.2305 77.1484 31.7578 76.7969 32.168L69.7656 40.6055L76.7969 49.043C77.1484 49.4531 77.3438 49.9805 77.3438 50.5273C77.3438 52.2852 75.4688 53.3984 73.9258 52.5781L56.3672 43.2227C54.2773 42.1094 54.2773 39.1016 56.3672 37.9883L73.9258 28.6328C75.4688 27.8125 77.3438 28.9258 77.3438 30.6836Z" fill="#0E0E18"/>
</g>
<defs>
<clipPath id="clip0_2085_66">
<rect width="100" height="100" fill="white"/>
</clipPath>
</defs>
</svg>
