<svg width="500" height="500" viewBox="0 0 500 500" fill="none" xmlns="http://www.w3.org/2000/svg">
<path d="M166.667 83.3333H125C113.949 83.3333 103.351 87.7231 95.5374 95.5371C87.7234 103.351 83.3335 113.949 83.3335 125V375C83.3335 386.051 87.7234 396.649 95.5374 404.463C103.351 412.277 113.949 416.667 125 416.667H375C386.051 416.667 396.649 412.277 404.463 404.463C412.277 396.649 416.667 386.051 416.667 375V163.083C416.664 152.033 412.273 141.437 404.458 133.625L366.375 95.5416C358.563 87.727 347.967 83.3356 336.917 83.3333H312.5M166.667 83.3333V166.667C166.667 172.192 168.862 177.491 172.769 181.398C176.676 185.305 181.975 187.5 187.5 187.5H291.667C297.192 187.5 302.491 185.305 306.398 181.398C310.305 177.491 312.5 172.192 312.5 166.667V83.3333M166.667 83.3333H312.5M145.833 354.167V291.667C145.833 286.141 148.028 280.842 151.935 276.935C155.842 273.028 161.141 270.833 166.667 270.833H333.334C338.859 270.833 344.158 273.028 348.065 276.935C351.972 280.842 354.167 286.141 354.167 291.667V354.167" stroke="#0E0E18" stroke-width="30" stroke-linecap="round" stroke-linejoin="round"/>
</svg>
