<svg width="100" height="100" viewBox="0 0 100 100" fill="none" xmlns="http://www.w3.org/2000/svg">
<path d="M80 30H20C14.4772 30 10 34.4772 10 40V60C10 65.5228 14.4772 70 20 70H80C85.5229 70 90 65.5228 90 60V40C90 34.4772 85.5229 30 80 30Z" stroke="#0E0E18" stroke-width="3" stroke-linecap="round" stroke-linejoin="round"/>
<path d="M40 30H20C14.4772 30 10 34.4772 10 40V60C10 65.5228 14.4772 70 20 70H40C45.5228 70 50 65.5228 50 60V40C50 34.4772 45.5228 30 40 30Z" fill="#0E0E18" stroke="#0E0E18" stroke-width="1.2" stroke-linecap="round" stroke-linejoin="round"/>
</svg>
